<?xml version="1.0" encoding="UTF-8" standalone="no"?>
<!DOCTYPE svg PUBLIC "-//W3C//DTD SVG 1.1//EN"
 "http://www.w3.org/Graphics/SVG/1.1/DTD/svg11.dtd">
<!-- Generated by graphviz version 12.2.1 (0)
 -->
<!-- Title: LubyDependencies Pages: 1 -->
<svg width="1618pt" height="764pt"
 viewBox="0.00 0.00 1618.35 764.00" xmlns="http://www.w3.org/2000/svg" xmlns:xlink="http://www.w3.org/1999/xlink">
<g id="graph0" class="graph" transform="scale(1 1) rotate(0) translate(4 760)">
<title>LubyDependencies</title>
<polygon fill="white" stroke="none" points="-4,4 -4,-760 1614.35,-760 1614.35,4 -4,4"/>
<!-- S2_ge_two -->
<g id="node1" class="node">
<title>S2_ge_two</title>
<polygon fill="#a9dfbf" stroke="black" points="1595.6,-180 1536.1,-180 1536.1,-144 1595.6,-144 1595.6,-180"/>
<text text-anchor="middle" x="1565.85" y="-158.32" font-family="Helvetica,sans-Serif" font-size="9.00">S₂_ge_two</text>
</g>
<!-- S2_ge_two_prime -->
<g id="node2" class="node">
<title>S2_ge_two_prime</title>
<polygon fill="#d7bde2" stroke="black" points="1436.35,-108 1375.35,-108 1375.35,-72 1436.35,-72 1436.35,-108"/>
<text text-anchor="middle" x="1405.85" y="-86.33" font-family="Helvetica,sans-Serif" font-size="9.00">S₂_ge_two&#39;</text>
</g>
<!-- S2_ge_two&#45;&gt;S2_ge_two_prime -->
<g id="edge2" class="edge">
<title>S2_ge_two&#45;&gt;S2_ge_two_prime</title>
<path fill="none" stroke="black" d="M1535.76,-147.83C1509.53,-136.36 1471.38,-119.67 1443.2,-107.34"/>
<polygon fill="black" stroke="black" points="1444.35,-105.55 1438.01,-105.07 1442.67,-109.4 1444.35,-105.55"/>
</g>
<!-- luby_via_segment_eq_luby -->
<g id="node43" class="node">
<title>luby_via_segment_eq_luby</title>
<polygon fill="lightgrey" stroke="black" points="1139.48,-36 1010.23,-36 1010.23,0 1139.48,0 1139.48,-36"/>
<text text-anchor="middle" x="1074.85" y="-14.32" font-family="Helvetica,sans-Serif" font-size="9.00">luby_via_segment_eq_luby</text>
</g>
<!-- S2_ge_two_prime&#45;&gt;luby_via_segment_eq_luby -->
<g id="edge13" class="edge">
<title>S2_ge_two_prime&#45;&gt;luby_via_segment_eq_luby</title>
<path fill="none" stroke="black" d="M1375.01,-82.48C1323.34,-71.55 1217.97,-49.27 1146.86,-34.23"/>
<polygon fill="black" stroke="black" points="1147.45,-32.21 1141.14,-33.02 1146.58,-36.32 1147.45,-32.21"/>
</g>
<!-- bitslength_eq_size -->
<g id="node3" class="node">
<title>bitslength_eq_size</title>
<polygon fill="#aed6f1" stroke="black" points="1187.48,-756 1094.23,-756 1094.23,-720 1187.48,-720 1187.48,-756"/>
<text text-anchor="middle" x="1140.85" y="-734.33" font-family="Helvetica,sans-Serif" font-size="9.00">bitslength_eq_size</text>
</g>
<!-- size_of_pow2_eq_self_add_one -->
<g id="node34" class="node">
<title>size_of_pow2_eq_self_add_one</title>
<polygon fill="#aed6f1" stroke="black" points="1064.98,-684 914.73,-684 914.73,-648 1064.98,-648 1064.98,-684"/>
<text text-anchor="middle" x="989.85" y="-662.33" font-family="Helvetica,sans-Serif" font-size="9.00">size_of_pow2_eq_self_add_one</text>
</g>
<!-- bitslength_eq_size&#45;&gt;size_of_pow2_eq_self_add_one -->
<g id="edge48" class="edge">
<title>bitslength_eq_size&#45;&gt;size_of_pow2_eq_self_add_one</title>
<path fill="none" stroke="black" d="M1103.14,-719.52C1082.16,-709.79 1055.94,-697.64 1034,-687.47"/>
<polygon fill="black" stroke="black" points="1035.05,-685.64 1028.72,-685.02 1033.28,-689.45 1035.05,-685.64"/>
</g>
<!-- size_sub -->
<g id="node35" class="node">
<title>size_sub</title>
<polygon fill="#aed6f1" stroke="black" points="1204.85,-684 1150.85,-684 1150.85,-648 1204.85,-648 1204.85,-684"/>
<text text-anchor="middle" x="1177.85" y="-662.33" font-family="Helvetica,sans-Serif" font-size="9.00">size_sub</text>
</g>
<!-- bitslength_eq_size&#45;&gt;size_sub -->
<g id="edge50" class="edge">
<title>bitslength_eq_size&#45;&gt;size_sub</title>
<path fill="none" stroke="black" d="M1150,-719.7C1154.66,-710.88 1160.39,-700.03 1165.44,-690.47"/>
<polygon fill="black" stroke="black" points="1167.16,-691.73 1168.1,-685.44 1163.44,-689.77 1167.16,-691.73"/>
</g>
<!-- bitslength_of_pow2_eq_self_add_one -->
<g id="node4" class="node">
<title>bitslength_of_pow2_eq_self_add_one</title>
<polygon fill="#aed6f1" stroke="black" points="1076.6,-756 903.1,-756 903.1,-720 1076.6,-720 1076.6,-756"/>
<text text-anchor="middle" x="989.85" y="-734.33" font-family="Helvetica,sans-Serif" font-size="9.00">bitslength_of_pow2_eq_self_add_one</text>
</g>
<!-- bitslength_of_pow2_eq_self_add_one&#45;&gt;size_of_pow2_eq_self_add_one -->
<g id="edge49" class="edge">
<title>bitslength_of_pow2_eq_self_add_one&#45;&gt;size_of_pow2_eq_self_add_one</title>
<path fill="none" stroke="black" d="M989.85,-719.7C989.85,-711.22 989.85,-700.86 989.85,-691.58"/>
<polygon fill="black" stroke="black" points="991.95,-691.62 989.85,-685.62 987.75,-691.62 991.95,-691.62"/>
</g>
<!-- bitslength_of_pow2_eq_self_add_one&#45;&gt;size_sub -->
<g id="edge51" class="edge">
<title>bitslength_of_pow2_eq_self_add_one&#45;&gt;size_sub</title>
<path fill="none" stroke="black" d="M1036.81,-719.52C1069.93,-707.18 1113.56,-690.94 1143.47,-679.8"/>
<polygon fill="black" stroke="black" points="1144.08,-681.81 1148.97,-677.75 1142.61,-677.88 1144.08,-681.81"/>
</g>
<!-- envelope_S2_eq -->
<g id="node5" class="node">
<title>envelope_S2_eq</title>
<polygon fill="#d7bde2" stroke="black" points="406.6,-468 323.1,-468 323.1,-432 406.6,-432 406.6,-468"/>
<text text-anchor="middle" x="364.85" y="-446.32" font-family="Helvetica,sans-Serif" font-size="9.00">envelope_S₂_eq</text>
</g>
<!-- envelope_gives_pow2 -->
<g id="node6" class="node">
<title>envelope_gives_pow2</title>
<polygon fill="#d7bde2" stroke="black" points="538.35,-396 429.35,-396 429.35,-360 538.35,-360 538.35,-396"/>
<text text-anchor="middle" x="483.85" y="-374.32" font-family="Helvetica,sans-Serif" font-size="9.00">envelope_gives_pow2</text>
</g>
<!-- envelope_S2_eq&#45;&gt;envelope_gives_pow2 -->
<g id="edge3" class="edge">
<title>envelope_S2_eq&#45;&gt;envelope_gives_pow2</title>
<path fill="none" stroke="black" d="M394.57,-431.52C410.88,-421.92 431.21,-409.96 448.35,-399.88"/>
<polygon fill="black" stroke="black" points="449.1,-401.88 453.2,-397.03 446.97,-398.26 449.1,-401.88"/>
</g>
<!-- luby_via_segment_at_envelope -->
<g id="node8" class="node">
<title>luby_via_segment_at_envelope</title>
<polygon fill="#d7bde2" stroke="black" points="718.48,-324 571.23,-324 571.23,-288 718.48,-288 718.48,-324"/>
<text text-anchor="middle" x="644.85" y="-302.32" font-family="Helvetica,sans-Serif" font-size="9.00">luby_via_segment_at_envelope</text>
</g>
<!-- envelope_gives_pow2&#45;&gt;luby_via_segment_at_envelope -->
<g id="edge4" class="edge">
<title>envelope_gives_pow2&#45;&gt;luby_via_segment_at_envelope</title>
<path fill="none" stroke="black" d="M524.06,-359.52C546.53,-349.75 574.63,-337.53 598.08,-327.34"/>
<polygon fill="black" stroke="black" points="598.82,-329.3 603.48,-324.99 597.15,-325.45 598.82,-329.3"/>
</g>
<!-- le_if_le_size -->
<g id="node7" class="node">
<title>le_if_le_size</title>
<polygon fill="#aed6f1" stroke="black" points="1574.73,-684 1506.98,-684 1506.98,-648 1574.73,-648 1574.73,-684"/>
<text text-anchor="middle" x="1540.85" y="-662.33" font-family="Helvetica,sans-Serif" font-size="9.00">le_if_le_size</text>
</g>
<!-- n_ge_subenvelope -->
<g id="node12" class="node">
<title>n_ge_subenvelope</title>
<polygon fill="#aed6f1" stroke="black" points="1588.6,-612 1493.1,-612 1493.1,-576 1588.6,-576 1588.6,-612"/>
<text text-anchor="middle" x="1540.85" y="-590.33" font-family="Helvetica,sans-Serif" font-size="9.00">n_ge_subenvelope</text>
</g>
<!-- le_if_le_size&#45;&gt;n_ge_subenvelope -->
<g id="edge30" class="edge">
<title>le_if_le_size&#45;&gt;n_ge_subenvelope</title>
<path fill="none" stroke="black" d="M1540.85,-647.7C1540.85,-639.22 1540.85,-628.86 1540.85,-619.58"/>
<polygon fill="black" stroke="black" points="1542.95,-619.62 1540.85,-613.62 1538.75,-619.62 1542.95,-619.62"/>
</g>
<!-- luby_via_segment_at_envelope&#45;&gt;luby_via_segment_eq_luby -->
<g id="edge14" class="edge">
<title>luby_via_segment_at_envelope&#45;&gt;luby_via_segment_eq_luby</title>
<path fill="none" stroke="black" d="M649.24,-287.57C658.35,-254.84 682.35,-183.93 727.85,-144 806.65,-74.85 926.58,-43.02 1002.81,-29.06"/>
<polygon fill="black" stroke="black" points="1003.02,-31.16 1008.55,-28.03 1002.28,-27.02 1003.02,-31.16"/>
</g>
<!-- luby_via_segment_def -->
<g id="node9" class="node">
<title>luby_via_segment_def</title>
<polygon fill="#f5cba7" stroke="black" points="846.35,-180 737.35,-180 737.35,-144 846.35,-144 846.35,-180"/>
<text text-anchor="middle" x="791.85" y="-158.32" font-family="Helvetica,sans-Serif" font-size="9.00">luby_via_segment_def</text>
</g>
<!-- luby_via_segment_non_envelope -->
<g id="node10" class="node">
<title>luby_via_segment_non_envelope</title>
<polygon fill="#d7bde2" stroke="black" points="1152.6,-108 997.1,-108 997.1,-72 1152.6,-72 1152.6,-108"/>
<text text-anchor="middle" x="1074.85" y="-86.33" font-family="Helvetica,sans-Serif" font-size="9.00">luby_via_segment_non_envelope</text>
</g>
<!-- luby_via_segment_def&#45;&gt;luby_via_segment_non_envelope -->
<g id="edge16" class="edge">
<title>luby_via_segment_def&#45;&gt;luby_via_segment_non_envelope</title>
<path fill="none" stroke="black" d="M846.75,-147.42C889.48,-136.85 949.34,-122.05 997.01,-110.25"/>
<polygon fill="black" stroke="black" points="997.46,-112.3 1002.78,-108.83 996.46,-108.23 997.46,-112.3"/>
</g>
<!-- luby_via_segment_non_envelope&#45;&gt;luby_via_segment_eq_luby -->
<g id="edge15" class="edge">
<title>luby_via_segment_non_envelope&#45;&gt;luby_via_segment_eq_luby</title>
<path fill="none" stroke="black" d="M1074.85,-71.7C1074.85,-63.22 1074.85,-52.86 1074.85,-43.58"/>
<polygon fill="black" stroke="black" points="1076.95,-43.62 1074.85,-37.62 1072.75,-43.62 1076.95,-43.62"/>
</g>
<!-- luby_via_segment_zero_eq_one -->
<g id="node11" class="node">
<title>luby_via_segment_zero_eq_one</title>
<polygon fill="#f5cba7" stroke="black" points="166.35,-468 15.35,-468 15.35,-432 166.35,-432 166.35,-468"/>
<text text-anchor="middle" x="90.85" y="-446.32" font-family="Helvetica,sans-Serif" font-size="9.00">luby_via_segment_zero_eq_one</text>
</g>
<!-- luby_via_segment_zero_eq_one&#45;&gt;luby_via_segment_at_envelope -->
<g id="edge5" class="edge">
<title>luby_via_segment_zero_eq_one&#45;&gt;luby_via_segment_at_envelope</title>
<path fill="none" stroke="black" d="M83.96,-431.85C77.21,-411.93 70.27,-379.33 87.85,-360 103.64,-342.63 413.18,-321.27 563.84,-311.85"/>
<polygon fill="black" stroke="black" points="563.52,-313.98 569.38,-311.51 563.26,-309.79 563.52,-313.98"/>
</g>
<!-- n_ge_subenvelope&#45;&gt;luby_via_segment_non_envelope -->
<g id="edge17" class="edge">
<title>n_ge_subenvelope&#45;&gt;luby_via_segment_non_envelope</title>
<path fill="none" stroke="black" d="M1533.16,-575.91C1522.06,-549.62 1502.85,-497.45 1502.85,-451 1502.85,-451 1502.85,-451 1502.85,-233 1502.85,-192.03 1509.68,-170.98 1478.85,-144 1455.31,-123.4 1271.46,-105.97 1160.05,-97.16"/>
<polygon fill="black" stroke="black" points="1160.47,-95.08 1154.32,-96.71 1160.14,-99.27 1160.47,-95.08"/>
</g>
<!-- next_as_add -->
<g id="node13" class="node">
<title>next_as_add</title>
<polygon fill="#f5cba7" stroke="black" points="241.48,-540 172.23,-540 172.23,-504 241.48,-504 241.48,-540"/>
<text text-anchor="middle" x="206.85" y="-518.33" font-family="Helvetica,sans-Serif" font-size="9.00">next_as_add</text>
</g>
<!-- next_as_add&#45;&gt;luby_via_segment_zero_eq_one -->
<g id="edge28" class="edge">
<title>next_as_add&#45;&gt;luby_via_segment_zero_eq_one</title>
<path fill="none" stroke="black" d="M177.88,-503.52C161.98,-493.92 142.16,-481.96 125.46,-471.88"/>
<polygon fill="black" stroke="black" points="126.97,-470.34 120.75,-469.04 124.8,-473.94 126.97,-470.34"/>
</g>
<!-- unfold_segment -->
<g id="node41" class="node">
<title>unfold_segment</title>
<polygon fill="#f5cba7" stroke="black" points="266.85,-468 184.85,-468 184.85,-432 266.85,-432 266.85,-468"/>
<text text-anchor="middle" x="225.85" y="-446.32" font-family="Helvetica,sans-Serif" font-size="9.00">unfold_segment</text>
</g>
<!-- next_as_add&#45;&gt;unfold_segment -->
<g id="edge61" class="edge">
<title>next_as_add&#45;&gt;unfold_segment</title>
<path fill="none" stroke="black" d="M211.55,-503.7C213.87,-495.14 216.72,-484.66 219.25,-475.3"/>
<polygon fill="black" stroke="black" points="221.27,-475.91 220.81,-469.57 217.21,-474.81 221.27,-475.91"/>
</g>
<!-- ofNat_start_eq -->
<g id="node14" class="node">
<title>ofNat_start_eq</title>
<polygon fill="#d7bde2" stroke="black" points="371.85,-324 295.85,-324 295.85,-288 371.85,-288 371.85,-324"/>
<text text-anchor="middle" x="333.85" y="-302.32" font-family="Helvetica,sans-Serif" font-size="9.00">ofNat_start_eq</text>
</g>
<!-- ofNat_start_eq&#45;&gt;luby_via_segment_non_envelope -->
<g id="edge18" class="edge">
<title>ofNat_start_eq&#45;&gt;luby_via_segment_non_envelope</title>
<path fill="none" stroke="black" d="M368.45,-287.58C435.86,-254.4 590.22,-182.05 727.85,-144 815.45,-119.78 918.74,-105.79 989.72,-98.34"/>
<polygon fill="black" stroke="black" points="989.66,-100.45 995.41,-97.75 989.22,-96.28 989.66,-100.45"/>
</g>
<!-- ofNat_succ -->
<g id="node15" class="node">
<title>ofNat_succ</title>
<polygon fill="#d7bde2" stroke="black" points="808.73,-396 746.98,-396 746.98,-360 808.73,-360 808.73,-396"/>
<text text-anchor="middle" x="777.85" y="-374.32" font-family="Helvetica,sans-Serif" font-size="9.00">ofNat_succ</text>
</g>
<!-- ofNat_succ&#45;&gt;luby_via_segment_at_envelope -->
<g id="edge6" class="edge">
<title>ofNat_succ&#45;&gt;luby_via_segment_at_envelope</title>
<path fill="none" stroke="black" d="M746.67,-360.59C728.04,-350.79 704.21,-338.24 684.29,-327.76"/>
<polygon fill="black" stroke="black" points="685.32,-325.93 679.03,-324.99 683.36,-329.64 685.32,-325.93"/>
</g>
<!-- pow2_is_minimum -->
<g id="node16" class="node">
<title>pow2_is_minimum</title>
<polygon fill="#aed6f1" stroke="black" points="999.48,-612 906.23,-612 906.23,-576 999.48,-576 999.48,-612"/>
<text text-anchor="middle" x="952.85" y="-590.33" font-family="Helvetica,sans-Serif" font-size="9.00">pow2_is_minimum</text>
</g>
<!-- trailing_zeros_prop7 -->
<g id="node38" class="node">
<title>trailing_zeros_prop7</title>
<polygon fill="#f9e79f" stroke="black" points="1074.23,-540 973.48,-540 973.48,-504 1074.23,-504 1074.23,-540"/>
<text text-anchor="middle" x="1023.85" y="-518.33" font-family="Helvetica,sans-Serif" font-size="9.00">trailing_zeros_prop7</text>
</g>
<!-- pow2_is_minimum&#45;&gt;trailing_zeros_prop7 -->
<g id="edge56" class="edge">
<title>pow2_is_minimum&#45;&gt;trailing_zeros_prop7</title>
<path fill="none" stroke="black" d="M970.4,-575.7C979.69,-566.54 991.2,-555.19 1001.15,-545.38"/>
<polygon fill="black" stroke="black" points="1002.63,-546.87 1005.42,-541.17 999.68,-543.88 1002.63,-546.87"/>
</g>
<!-- pow2_le_pow2 -->
<g id="node17" class="node">
<title>pow2_le_pow2</title>
<polygon fill="#a9dfbf" stroke="black" points="1610.35,-252 1531.35,-252 1531.35,-216 1610.35,-216 1610.35,-252"/>
<text text-anchor="middle" x="1570.85" y="-230.32" font-family="Helvetica,sans-Serif" font-size="9.00">pow2_le_pow2</text>
</g>
<!-- pow2_le_pow2&#45;&gt;S2_ge_two -->
<g id="edge1" class="edge">
<title>pow2_le_pow2&#45;&gt;S2_ge_two</title>
<path fill="none" stroke="black" d="M1569.61,-215.7C1569.01,-207.22 1568.27,-196.86 1567.61,-187.58"/>
<polygon fill="black" stroke="black" points="1569.7,-187.45 1567.18,-181.61 1565.51,-187.75 1569.7,-187.45"/>
</g>
<!-- pow2_sub_one -->
<g id="node18" class="node">
<title>pow2_sub_one</title>
<polygon fill="#aed6f1" stroke="black" points="1285.73,-756 1205.98,-756 1205.98,-720 1285.73,-720 1285.73,-756"/>
<text text-anchor="middle" x="1245.85" y="-734.33" font-family="Helvetica,sans-Serif" font-size="9.00">pow2_sub_one</text>
</g>
<!-- pow2_sub_one&#45;&gt;size_sub -->
<g id="edge52" class="edge">
<title>pow2_sub_one&#45;&gt;size_sub</title>
<path fill="none" stroke="black" d="M1229.04,-719.7C1220.15,-710.54 1209.13,-699.19 1199.59,-689.38"/>
<polygon fill="black" stroke="black" points="1201.21,-688.03 1195.52,-685.19 1198.2,-690.96 1201.21,-688.03"/>
</g>
<!-- segmentIdCovering_le_prime -->
<g id="node19" class="node">
<title>segmentIdCovering_le_prime</title>
<polygon fill="#d7bde2" stroke="black" points="1089.1,-180 978.6,-180 978.6,-144 1089.1,-144 1089.1,-180"/>
<text text-anchor="middle" x="1033.85" y="-158.32" font-family="Helvetica,sans-Serif" font-size="9.00">segmentIdCovering_le&#39;</text>
</g>
<!-- segmentIdCovering_le_prime&#45;&gt;luby_via_segment_non_envelope -->
<g id="edge19" class="edge">
<title>segmentIdCovering_le_prime&#45;&gt;luby_via_segment_non_envelope</title>
<path fill="none" stroke="black" d="M1043.99,-143.7C1049.15,-134.88 1055.5,-124.03 1061.1,-114.47"/>
<polygon fill="black" stroke="black" points="1062.85,-115.65 1064.07,-109.41 1059.22,-113.53 1062.85,-115.65"/>
</g>
<!-- segmentIdCovering_pos -->
<g id="node20" class="node">
<title>segmentIdCovering_pos</title>
<polygon fill="#f5cba7" stroke="black" points="1353.1,-252 1236.6,-252 1236.6,-216 1353.1,-216 1353.1,-252"/>
<text text-anchor="middle" x="1294.85" y="-230.32" font-family="Helvetica,sans-Serif" font-size="9.00">segmentIdCovering_pos</text>
</g>
<!-- segmentIdCovering_pos_prime -->
<g id="node21" class="node">
<title>segmentIdCovering_pos_prime</title>
<polygon fill="#d7bde2" stroke="black" points="1262.85,-180 1144.85,-180 1144.85,-144 1262.85,-144 1262.85,-180"/>
<text text-anchor="middle" x="1203.85" y="-158.32" font-family="Helvetica,sans-Serif" font-size="9.00">segmentIdCovering_pos&#39;</text>
</g>
<!-- segmentIdCovering_pos&#45;&gt;segmentIdCovering_pos_prime -->
<g id="edge37" class="edge">
<title>segmentIdCovering_pos&#45;&gt;segmentIdCovering_pos_prime</title>
<path fill="none" stroke="black" d="M1272.36,-215.7C1260.22,-206.36 1245.11,-194.74 1232.17,-184.79"/>
<polygon fill="black" stroke="black" points="1233.64,-183.26 1227.6,-181.27 1231.08,-186.59 1233.64,-183.26"/>
</g>
<!-- segmentIdCovering_pos_prime&#45;&gt;luby_via_segment_non_envelope -->
<g id="edge20" class="edge">
<title>segmentIdCovering_pos_prime&#45;&gt;luby_via_segment_non_envelope</title>
<path fill="none" stroke="black" d="M1171.63,-143.52C1153.8,-133.84 1131.53,-121.75 1112.85,-111.62"/>
<polygon fill="black" stroke="black" points="1114.27,-110 1107.99,-108.98 1112.26,-113.69 1114.27,-110"/>
</g>
<!-- segmentIdOver_0 -->
<g id="node22" class="node">
<title>segmentIdOver_0</title>
<polygon fill="#f5cba7" stroke="black" points="135.23,-540 46.48,-540 46.48,-504 135.23,-504 135.23,-540"/>
<text text-anchor="middle" x="90.85" y="-518.33" font-family="Helvetica,sans-Serif" font-size="9.00">segmentIdOver_0</text>
</g>
<!-- segmentIdOver_0&#45;&gt;luby_via_segment_zero_eq_one -->
<g id="edge29" class="edge">
<title>segmentIdOver_0&#45;&gt;luby_via_segment_zero_eq_one</title>
<path fill="none" stroke="black" d="M90.85,-503.7C90.85,-495.22 90.85,-484.86 90.85,-475.58"/>
<polygon fill="black" stroke="black" points="92.95,-475.62 90.85,-469.62 88.75,-475.62 92.95,-475.62"/>
</g>
<!-- segmentIdOver_at_envelope -->
<g id="node23" class="node">
<title>segmentIdOver_at_envelope</title>
<polygon fill="#f5cba7" stroke="black" points="691.1,-396 556.6,-396 556.6,-360 691.1,-360 691.1,-396"/>
<text text-anchor="middle" x="623.85" y="-374.32" font-family="Helvetica,sans-Serif" font-size="9.00">segmentIdOver_at_envelope</text>
</g>
<!-- segmentIdOver_at_envelope&#45;&gt;luby_via_segment_at_envelope -->
<g id="edge7" class="edge">
<title>segmentIdOver_at_envelope&#45;&gt;luby_via_segment_at_envelope</title>
<path fill="none" stroke="black" d="M629.04,-359.7C631.64,-351.05 634.82,-340.45 637.64,-331.03"/>
<polygon fill="black" stroke="black" points="639.57,-331.9 639.28,-325.55 635.55,-330.7 639.57,-331.9"/>
</g>
<!-- segment_starts_gt_self -->
<g id="node24" class="node">
<title>segment_starts_gt_self</title>
<polygon fill="#f5cba7" stroke="black" points="1284.1,-324 1173.6,-324 1173.6,-288 1284.1,-288 1284.1,-324"/>
<text text-anchor="middle" x="1228.85" y="-302.32" font-family="Helvetica,sans-Serif" font-size="9.00">segment_starts_gt_self</text>
</g>
<!-- segment_starts_gt_self&#45;&gt;segmentIdCovering_pos -->
<g id="edge36" class="edge">
<title>segment_starts_gt_self&#45;&gt;segmentIdCovering_pos</title>
<path fill="none" stroke="black" d="M1245.17,-287.7C1253.8,-278.54 1264.5,-267.19 1273.75,-257.38"/>
<polygon fill="black" stroke="black" points="1275.1,-259.01 1277.69,-253.21 1272.04,-256.13 1275.1,-259.01"/>
</g>
<!-- segment_starts_gt_self_prime -->
<g id="node25" class="node">
<title>segment_starts_gt_self_prime</title>
<polygon fill="#d7bde2" stroke="black" points="1218.85,-252 1106.85,-252 1106.85,-216 1218.85,-216 1218.85,-252"/>
<text text-anchor="middle" x="1162.85" y="-230.32" font-family="Helvetica,sans-Serif" font-size="9.00">segment_starts_gt_self&#39;</text>
</g>
<!-- segment_starts_gt_self&#45;&gt;segment_starts_gt_self_prime -->
<g id="edge42" class="edge">
<title>segment_starts_gt_self&#45;&gt;segment_starts_gt_self_prime</title>
<path fill="none" stroke="black" d="M1212.54,-287.7C1203.9,-278.54 1193.21,-267.19 1183.95,-257.38"/>
<polygon fill="black" stroke="black" points="1185.66,-256.13 1180.02,-253.21 1182.6,-259.01 1185.66,-256.13"/>
</g>
<!-- segment_starts_gt_self_prime&#45;&gt;luby_via_segment_non_envelope -->
<g id="edge21" class="edge">
<title>segment_starts_gt_self_prime&#45;&gt;luby_via_segment_non_envelope</title>
<path fill="none" stroke="black" d="M1152.06,-215.59C1136.27,-190.11 1106.85,-142.63 1089.24,-114.21"/>
<polygon fill="black" stroke="black" points="1091.2,-113.39 1086.25,-109.4 1087.63,-115.6 1091.2,-113.39"/>
</g>
<!-- segment_starts_gt_self_prime&#45;&gt;segmentIdCovering_le_prime -->
<g id="edge34" class="edge">
<title>segment_starts_gt_self_prime&#45;&gt;segmentIdCovering_le_prime</title>
<path fill="none" stroke="black" d="M1130.63,-215.52C1112.8,-205.84 1090.53,-193.75 1071.85,-183.62"/>
<polygon fill="black" stroke="black" points="1073.27,-182 1066.99,-180.98 1071.26,-185.69 1073.27,-182"/>
</g>
<!-- segment_starts_is_increasing_prime -->
<g id="node26" class="node">
<title>segment_starts_is_increasing_prime</title>
<polygon fill="#f5cba7" stroke="black" points="564.73,-468 424.98,-468 424.98,-432 564.73,-432 564.73,-468"/>
<text text-anchor="middle" x="494.85" y="-446.32" font-family="Helvetica,sans-Serif" font-size="9.00">segment_starts_is_increasing&#39;</text>
</g>
<!-- segment_starts_is_increasing_prime&#45;&gt;segmentIdOver_at_envelope -->
<g id="edge38" class="edge">
<title>segment_starts_is_increasing_prime&#45;&gt;segmentIdOver_at_envelope</title>
<path fill="none" stroke="black" d="M527.07,-431.52C544.9,-421.84 567.18,-409.75 585.86,-399.62"/>
<polygon fill="black" stroke="black" points="586.44,-401.69 590.71,-396.98 584.44,-398 586.44,-401.69"/>
</g>
<!-- segment_starts_is_monotone -->
<g id="node27" class="node">
<title>segment_starts_is_monotone</title>
<polygon fill="#f5cba7" stroke="black" points="719.23,-468 582.48,-468 582.48,-432 719.23,-432 719.23,-468"/>
<text text-anchor="middle" x="650.85" y="-446.32" font-family="Helvetica,sans-Serif" font-size="9.00">segment_starts_is_monotone</text>
</g>
<!-- segment_starts_is_monotone&#45;&gt;luby_via_segment_non_envelope -->
<g id="edge22" class="edge">
<title>segment_starts_is_monotone&#45;&gt;luby_via_segment_non_envelope</title>
<path fill="none" stroke="black" d="M719.67,-432.22C758.35,-421.82 801.98,-408.17 817.85,-396 855.12,-367.41 874.85,-353.97 874.85,-307 874.85,-307 874.85,-307 874.85,-233 874.85,-168.96 943.87,-131.16 1000.82,-110.86"/>
<polygon fill="black" stroke="black" points="1001.29,-112.92 1006.27,-108.97 999.91,-108.96 1001.29,-112.92"/>
</g>
<!-- segment_starts_is_monotone&#45;&gt;segmentIdOver_at_envelope -->
<g id="edge39" class="edge">
<title>segment_starts_is_monotone&#45;&gt;segmentIdOver_at_envelope</title>
<path fill="none" stroke="black" d="M644.18,-431.7C640.84,-423.05 636.75,-412.45 633.12,-403.03"/>
<polygon fill="black" stroke="black" points="635.11,-402.36 630.99,-397.52 631.19,-403.87 635.11,-402.36"/>
</g>
<!-- segment_starts_pow2_add_one -->
<g id="node28" class="node">
<title>segment_starts_pow2_add_one</title>
<polygon fill="#d7bde2" stroke="black" points="1088.85,-252 940.85,-252 940.85,-216 1088.85,-216 1088.85,-252"/>
<text text-anchor="middle" x="1014.85" y="-230.32" font-family="Helvetica,sans-Serif" font-size="9.00">segment_starts_pow2_add_one</text>
</g>
<!-- segment_starts_pow2_add_one&#45;&gt;luby_via_segment_non_envelope -->
<g id="edge23" class="edge">
<title>segment_starts_pow2_add_one&#45;&gt;luby_via_segment_non_envelope</title>
<path fill="none" stroke="black" d="M995.49,-215.81C977.35,-197.54 955.06,-168.04 969.85,-144 978.56,-129.85 992.34,-119.34 1007.09,-111.58"/>
<polygon fill="black" stroke="black" points="1007.66,-113.65 1012.1,-109.1 1005.79,-109.88 1007.66,-113.65"/>
</g>
<!-- segment_starts_pow2_add_one&#45;&gt;segmentIdCovering_le_prime -->
<g id="edge35" class="edge">
<title>segment_starts_pow2_add_one&#45;&gt;segmentIdCovering_le_prime</title>
<path fill="none" stroke="black" d="M1019.55,-215.7C1021.87,-207.14 1024.72,-196.66 1027.25,-187.3"/>
<polygon fill="black" stroke="black" points="1029.27,-187.91 1028.81,-181.57 1025.21,-186.81 1029.27,-187.91"/>
</g>
<!-- segment_starts_shift -->
<g id="node29" class="node">
<title>segment_starts_shift</title>
<polygon fill="#d7bde2" stroke="black" points="1064.85,-324 964.85,-324 964.85,-288 1064.85,-288 1064.85,-324"/>
<text text-anchor="middle" x="1014.85" y="-302.32" font-family="Helvetica,sans-Serif" font-size="9.00">segment_starts_shift</text>
</g>
<!-- segment_starts_shift&#45;&gt;luby_via_segment_non_envelope -->
<g id="edge24" class="edge">
<title>segment_starts_shift&#45;&gt;luby_via_segment_non_envelope</title>
<path fill="none" stroke="black" d="M970.85,-287.63C955.7,-279.26 940.39,-267.59 931.85,-252 924.16,-237.97 928.81,-231.71 931.85,-216 938.42,-182.13 937.1,-169.02 960.85,-144 974.23,-129.9 992.1,-119.2 1009.71,-111.23"/>
<polygon fill="black" stroke="black" points="1010.13,-113.34 1014.8,-109.02 1008.46,-109.49 1010.13,-113.34"/>
</g>
<!-- segment_starts_shift&#45;&gt;segment_starts_pow2_add_one -->
<g id="edge43" class="edge">
<title>segment_starts_shift&#45;&gt;segment_starts_pow2_add_one</title>
<path fill="none" stroke="black" d="M1014.85,-287.7C1014.85,-279.22 1014.85,-268.86 1014.85,-259.58"/>
<polygon fill="black" stroke="black" points="1016.95,-259.62 1014.85,-253.62 1012.75,-259.62 1016.95,-259.62"/>
</g>
<!-- segment_starts_to_segment_start -->
<g id="node30" class="node">
<title>segment_starts_to_segment_start</title>
<polygon fill="#f5cba7" stroke="black" points="250.85,-396 96.85,-396 96.85,-360 250.85,-360 250.85,-396"/>
<text text-anchor="middle" x="173.85" y="-374.32" font-family="Helvetica,sans-Serif" font-size="9.00">segment_starts_to_segment_start</text>
</g>
<!-- segment_starts_to_segment_start&#45;&gt;ofNat_start_eq -->
<g id="edge32" class="edge">
<title>segment_starts_to_segment_start&#45;&gt;ofNat_start_eq</title>
<path fill="none" stroke="black" d="M213.81,-359.52C236.56,-349.57 265.12,-337.07 288.68,-326.76"/>
<polygon fill="black" stroke="black" points="289.46,-328.71 294.11,-324.39 287.77,-324.87 289.46,-328.71"/>
</g>
<!-- size2_eq_2 -->
<g id="node31" class="node">
<title>size2_eq_2</title>
<polygon fill="#aed6f1" stroke="black" points="1344.85,-180 1280.85,-180 1280.85,-144 1344.85,-144 1344.85,-180"/>
<text text-anchor="middle" x="1312.85" y="-158.32" font-family="Helvetica,sans-Serif" font-size="9.00">size2_eq_2</text>
</g>
<!-- size2_eq_2&#45;&gt;luby_via_segment_non_envelope -->
<g id="edge25" class="edge">
<title>size2_eq_2&#45;&gt;luby_via_segment_non_envelope</title>
<path fill="none" stroke="black" d="M1280.77,-147.24C1277.78,-146.09 1274.77,-144.99 1271.85,-144 1234.13,-131.17 1191.52,-119.38 1155.6,-110.19"/>
<polygon fill="black" stroke="black" points="1156.31,-108.21 1149.97,-108.76 1155.27,-112.28 1156.31,-108.21"/>
</g>
<!-- size_add_prime -->
<g id="node32" class="node">
<title>size_add_prime</title>
<polygon fill="#aed6f1" stroke="black" points="1111.35,-612 1056.35,-612 1056.35,-576 1111.35,-576 1111.35,-612"/>
<text text-anchor="middle" x="1083.85" y="-590.33" font-family="Helvetica,sans-Serif" font-size="9.00">size_add&#39;</text>
</g>
<!-- size_add_prime&#45;&gt;trailing_zeros_prop7 -->
<g id="edge57" class="edge">
<title>size_add_prime&#45;&gt;trailing_zeros_prop7</title>
<path fill="none" stroke="black" d="M1069.02,-575.7C1061.24,-566.63 1051.63,-555.4 1043.27,-545.65"/>
<polygon fill="black" stroke="black" points="1045,-544.44 1039.5,-541.25 1041.81,-547.18 1045,-544.44"/>
</g>
<!-- size_of_pow2 -->
<g id="node33" class="node">
<title>size_of_pow2</title>
<polygon fill="#aed6f1" stroke="black" points="1436.35,-180 1363.35,-180 1363.35,-144 1436.35,-144 1436.35,-180"/>
<text text-anchor="middle" x="1399.85" y="-158.32" font-family="Helvetica,sans-Serif" font-size="9.00">size_of_pow2</text>
</g>
<!-- size_of_pow2&#45;&gt;luby_via_segment_non_envelope -->
<g id="edge26" class="edge">
<title>size_of_pow2&#45;&gt;luby_via_segment_non_envelope</title>
<path fill="none" stroke="black" d="M1362.87,-146.73C1359.84,-145.75 1356.8,-144.82 1353.85,-144 1289.86,-126.23 1215.96,-112.49 1160.3,-103.45"/>
<polygon fill="black" stroke="black" points="1160.67,-101.38 1154.42,-102.5 1160.01,-105.53 1160.67,-101.38"/>
</g>
<!-- size_of_pow2_eq_self_add_one&#45;&gt;luby_via_segment_at_envelope -->
<g id="edge8" class="edge">
<title>size_of_pow2_eq_self_add_one&#45;&gt;luby_via_segment_at_envelope</title>
<path fill="none" stroke="black" d="M940.69,-647.73C924.15,-639.47 907.27,-627.84 896.85,-612 852.62,-544.75 908.09,-506.18 876.85,-432 860.79,-393.87 852.21,-383.04 817.85,-360 790.56,-341.7 756.68,-329.5 726.16,-321.48"/>
<polygon fill="black" stroke="black" points="726.69,-319.45 720.36,-320 725.65,-323.52 726.69,-319.45"/>
</g>
<!-- size_of_pow2_eq_self_add_one&#45;&gt;luby_via_segment_non_envelope -->
<g id="edge27" class="edge">
<title>size_of_pow2_eq_self_add_one&#45;&gt;luby_via_segment_non_envelope</title>
<path fill="none" stroke="black" d="M1065.38,-650.29C1199.4,-623.15 1464.85,-564.18 1464.85,-523 1464.85,-523 1464.85,-523 1464.85,-233 1464.85,-192.55 1475.41,-171.61 1445.85,-144 1405.65,-106.46 1256.69,-95.39 1160.19,-92.2"/>
<polygon fill="black" stroke="black" points="1160.33,-90.1 1154.27,-92.01 1160.2,-94.3 1160.33,-90.1"/>
</g>
<!-- size_of_pow2_eq_self_add_one&#45;&gt;pow2_is_minimum -->
<g id="edge33" class="edge">
<title>size_of_pow2_eq_self_add_one&#45;&gt;pow2_is_minimum</title>
<path fill="none" stroke="black" d="M980.7,-647.7C976.04,-638.88 970.31,-628.03 965.26,-618.47"/>
<polygon fill="black" stroke="black" points="967.26,-617.77 962.6,-613.44 963.55,-619.73 967.26,-617.77"/>
</g>
<!-- size_of_pow2_eq_self_add_one&#45;&gt;segmentIdOver_at_envelope -->
<g id="edge40" class="edge">
<title>size_of_pow2_eq_self_add_one&#45;&gt;segmentIdOver_at_envelope</title>
<path fill="none" stroke="black" d="M914.49,-664.37C714.5,-661.3 176.24,-643.38 37.85,-540 9.8,-519.04 13.12,-502.26 5.85,-468 2.53,-452.35 -5.08,-443.68 5.85,-432 47.01,-388.01 487.21,-404.52 546.85,-396 547.63,-395.89 548.41,-395.77 549.2,-395.66"/>
<polygon fill="black" stroke="black" points="549.26,-397.77 554.86,-394.75 548.6,-393.63 549.26,-397.77"/>
</g>
<!-- size_of_pow2_eq_self_add_one&#45;&gt;segment_starts_shift -->
<g id="edge44" class="edge">
<title>size_of_pow2_eq_self_add_one&#45;&gt;segment_starts_shift</title>
<path fill="none" stroke="black" d="M1065.41,-648.51C1086.02,-640.61 1106.58,-629.01 1120.85,-612 1146.86,-581.02 1139.85,-563.45 1139.85,-523 1139.85,-523 1139.85,-523 1139.85,-449 1139.85,-408.55 1145.61,-391.98 1120.85,-360 1108.46,-343.99 1089.93,-332.45 1071.81,-324.32"/>
<polygon fill="black" stroke="black" points="1072.9,-322.5 1066.56,-322.07 1071.25,-326.37 1072.9,-322.5"/>
</g>
<!-- trailing_zeros_prop3 -->
<g id="node37" class="node">
<title>trailing_zeros_prop3</title>
<polygon fill="#f9e79f" stroke="black" points="853.23,-540 752.48,-540 752.48,-504 853.23,-504 853.23,-540"/>
<text text-anchor="middle" x="802.85" y="-518.33" font-family="Helvetica,sans-Serif" font-size="9.00">trailing_zeros_prop3</text>
</g>
<!-- size_of_pow2_eq_self_add_one&#45;&gt;trailing_zeros_prop3 -->
<g id="edge55" class="edge">
<title>size_of_pow2_eq_self_add_one&#45;&gt;trailing_zeros_prop3</title>
<path fill="none" stroke="black" d="M929.25,-647.51C907.13,-639.16 882.89,-627.52 863.85,-612 842.03,-594.21 824.81,-566.64 814.31,-546.9"/>
<polygon fill="black" stroke="black" points="816.19,-545.98 811.57,-541.61 812.46,-547.91 816.19,-545.98"/>
</g>
<!-- size_of_pow2_eq_self_add_one&#45;&gt;trailing_zeros_prop7 -->
<g id="edge58" class="edge">
<title>size_of_pow2_eq_self_add_one&#45;&gt;trailing_zeros_prop7</title>
<path fill="none" stroke="black" d="M996.98,-647.58C1000.94,-637.36 1005.69,-624.11 1008.85,-612 1014.47,-590.51 1018.46,-565.53 1020.91,-547.52"/>
<polygon fill="black" stroke="black" points="1022.97,-547.98 1021.67,-541.75 1018.8,-547.43 1022.97,-547.98"/>
</g>
<!-- size_sub&#45;&gt;luby_via_segment_at_envelope -->
<g id="edge9" class="edge">
<title>size_sub&#45;&gt;luby_via_segment_at_envelope</title>
<path fill="none" stroke="black" d="M1171.76,-647.58C1159.64,-615.19 1129.55,-545.25 1082.85,-504 1052.71,-477.38 1034.75,-487.97 999.85,-468 929.18,-427.55 925.51,-394.72 851.85,-360 812.21,-341.31 765.07,-328.58 725.79,-320.3"/>
<polygon fill="black" stroke="black" points="726.34,-318.26 720.04,-319.11 725.49,-322.38 726.34,-318.26"/>
</g>
<!-- size_sub&#45;&gt;n_ge_subenvelope -->
<g id="edge31" class="edge">
<title>size_sub&#45;&gt;n_ge_subenvelope</title>
<path fill="none" stroke="black" d="M1205,-661.09C1257.97,-653.27 1378.67,-634.5 1478.85,-612 1481.14,-611.49 1483.47,-610.94 1485.82,-610.38"/>
<polygon fill="black" stroke="black" points="1486.11,-612.47 1491.43,-608.99 1485.1,-608.39 1486.11,-612.47"/>
</g>
<!-- sum_of_trailing_zeros_prop -->
<g id="node36" class="node">
<title>sum_of_trailing_zeros_prop</title>
<polygon fill="#f9e79f" stroke="black" points="868.23,-468 737.48,-468 737.48,-432 868.23,-432 868.23,-468"/>
<text text-anchor="middle" x="802.85" y="-446.32" font-family="Helvetica,sans-Serif" font-size="9.00">sum_of_trailing_zeros_prop</text>
</g>
<!-- sum_of_trailing_zeros_prop&#45;&gt;luby_via_segment_at_envelope -->
<g id="edge10" class="edge">
<title>sum_of_trailing_zeros_prop&#45;&gt;luby_via_segment_at_envelope</title>
<path fill="none" stroke="black" d="M780.53,-431.52C767.81,-421.38 751.71,-408.25 737.85,-396 730.82,-389.78 692.94,-353.38 667.75,-329.1"/>
<polygon fill="black" stroke="black" points="669.45,-327.82 663.67,-325.16 666.53,-330.84 669.45,-327.82"/>
</g>
<!-- sum_of_trailing_zeros_prop&#45;&gt;segmentIdOver_at_envelope -->
<g id="edge41" class="edge">
<title>sum_of_trailing_zeros_prop&#45;&gt;segmentIdOver_at_envelope</title>
<path fill="none" stroke="black" d="M758.14,-431.52C732.95,-421.67 701.38,-409.32 675.18,-399.07"/>
<polygon fill="black" stroke="black" points="676.06,-397.16 669.71,-396.93 674.53,-401.07 676.06,-397.16"/>
</g>
<!-- sum_of_trailing_zeros_prop&#45;&gt;segment_starts_shift -->
<g id="edge45" class="edge">
<title>sum_of_trailing_zeros_prop&#45;&gt;segment_starts_shift</title>
<path fill="none" stroke="black" d="M832.2,-431.54C848.95,-421.41 870.26,-408.27 888.85,-396 922.57,-373.73 960.32,-346.79 985.63,-328.42"/>
<polygon fill="black" stroke="black" points="986.63,-330.3 990.24,-325.07 984.16,-326.9 986.63,-330.3"/>
</g>
<!-- trailing_zeros_prop3&#45;&gt;luby_via_segment_at_envelope -->
<g id="edge11" class="edge">
<title>trailing_zeros_prop3&#45;&gt;luby_via_segment_at_envelope</title>
<path fill="none" stroke="black" d="M752.37,-519.27C633.32,-514.68 342.8,-500.25 313.85,-468 303.16,-456.09 305.6,-445.71 313.85,-432 331.49,-402.7 354.07,-415.94 381.85,-396 400.75,-382.43 399.38,-371.05 419.85,-360 464.18,-336.08 519.12,-322.87 563.62,-315.63"/>
<polygon fill="black" stroke="black" points="563.86,-317.72 569.46,-314.71 563.2,-313.57 563.86,-317.72"/>
</g>
<!-- trailing_zeros_prop3&#45;&gt;sum_of_trailing_zeros_prop -->
<g id="edge53" class="edge">
<title>trailing_zeros_prop3&#45;&gt;sum_of_trailing_zeros_prop</title>
<path fill="none" stroke="black" d="M802.85,-503.7C802.85,-495.22 802.85,-484.86 802.85,-475.58"/>
<polygon fill="black" stroke="black" points="804.95,-475.62 802.85,-469.62 800.75,-475.62 804.95,-475.62"/>
</g>
<!-- trailing_zeros_prop7&#45;&gt;sum_of_trailing_zeros_prop -->
<g id="edge54" class="edge">
<title>trailing_zeros_prop7&#45;&gt;sum_of_trailing_zeros_prop</title>
<path fill="none" stroke="black" d="M973.15,-504.94C941.03,-494.77 899.26,-481.54 865.12,-470.72"/>
<polygon fill="black" stroke="black" points="865.76,-468.72 859.4,-468.91 864.49,-472.73 865.76,-468.72"/>
</g>
<!-- trailing_zeros_prop8 -->
<g id="node39" class="node">
<title>trailing_zeros_prop8</title>
<polygon fill="#f9e79f" stroke="black" points="1109.23,-468 1008.48,-468 1008.48,-432 1109.23,-432 1109.23,-468"/>
<text text-anchor="middle" x="1058.85" y="-446.32" font-family="Helvetica,sans-Serif" font-size="9.00">trailing_zeros_prop8</text>
</g>
<!-- trailing_zeros_prop7&#45;&gt;trailing_zeros_prop8 -->
<g id="edge59" class="edge">
<title>trailing_zeros_prop7&#45;&gt;trailing_zeros_prop8</title>
<path fill="none" stroke="black" d="M1032.5,-503.7C1036.87,-494.97 1042.23,-484.24 1046.98,-474.75"/>
<polygon fill="black" stroke="black" points="1048.82,-475.76 1049.62,-469.46 1045.06,-473.89 1048.82,-475.76"/>
</g>
<!-- trailing_zeros_prop9 -->
<g id="node40" class="node">
<title>trailing_zeros_prop9</title>
<polygon fill="#f9e79f" stroke="black" points="1112.23,-396 1011.48,-396 1011.48,-360 1112.23,-360 1112.23,-396"/>
<text text-anchor="middle" x="1061.85" y="-374.32" font-family="Helvetica,sans-Serif" font-size="9.00">trailing_zeros_prop9</text>
</g>
<!-- trailing_zeros_prop8&#45;&gt;trailing_zeros_prop9 -->
<g id="edge60" class="edge">
<title>trailing_zeros_prop8&#45;&gt;trailing_zeros_prop9</title>
<path fill="none" stroke="black" d="M1059.59,-431.7C1059.96,-423.22 1060.4,-412.86 1060.8,-403.58"/>
<polygon fill="black" stroke="black" points="1062.89,-403.7 1061.05,-397.62 1058.7,-403.52 1062.89,-403.7"/>
</g>
<!-- trailing_zeros_prop9&#45;&gt;segment_starts_shift -->
<g id="edge46" class="edge">
<title>trailing_zeros_prop9&#45;&gt;segment_starts_shift</title>
<path fill="none" stroke="black" d="M1050.23,-359.7C1044.26,-350.8 1036.89,-339.82 1030.43,-330.2"/>
<polygon fill="black" stroke="black" points="1032.27,-329.17 1027.18,-325.36 1028.78,-331.51 1032.27,-329.17"/>
</g>
<!-- unfold_segment&#45;&gt;segment_starts_to_segment_start -->
<g id="edge47" class="edge">
<title>unfold_segment&#45;&gt;segment_starts_to_segment_start</title>
<path fill="none" stroke="black" d="M213,-431.7C206.32,-422.71 198.08,-411.61 190.88,-401.92"/>
<polygon fill="black" stroke="black" points="192.72,-400.88 187.46,-397.32 189.35,-403.39 192.72,-400.88"/>
</g>
<!-- unfold_segment_start -->
<g id="node42" class="node">
<title>unfold_segment_start</title>
<polygon fill="#f5cba7" stroke="black" points="373.1,-396 268.6,-396 268.6,-360 373.1,-360 373.1,-396"/>
<text text-anchor="middle" x="320.85" y="-374.32" font-family="Helvetica,sans-Serif" font-size="9.00">unfold_segment_start</text>
</g>
<!-- unfold_segment&#45;&gt;unfold_segment_start -->
<g id="edge62" class="edge">
<title>unfold_segment&#45;&gt;unfold_segment_start</title>
<path fill="none" stroke="black" d="M249.33,-431.7C262.01,-422.36 277.78,-410.74 291.28,-400.79"/>
<polygon fill="black" stroke="black" points="292.51,-402.49 296.09,-397.24 290.01,-399.11 292.51,-402.49"/>
</g>
<!-- unfold_segment_start&#45;&gt;luby_via_segment_at_envelope -->
<g id="edge12" class="edge">
<title>unfold_segment_start&#45;&gt;luby_via_segment_at_envelope</title>
<path fill="none" stroke="black" d="M373.39,-363.22C377.94,-362.1 382.47,-361.01 386.85,-360 445.89,-346.34 512.94,-332.62 563.88,-322.56"/>
<polygon fill="black" stroke="black" points="564,-324.68 569.48,-321.46 563.19,-320.56 564,-324.68"/>
</g>
</g>
</svg>
