<?xml version="1.0" encoding="UTF-8" standalone="no"?>
<!DOCTYPE svg PUBLIC "-//W3C//DTD SVG 1.1//EN"
 "http://www.w3.org/Graphics/SVG/1.1/DTD/svg11.dtd">
<!-- Generated by graphviz version 12.2.1 (0)
 -->
<!-- Title: LubyDependencies Pages: 1 -->
<svg width="1974pt" height="764pt"
 viewBox="0.00 0.00 1973.50 764.00" xmlns="http://www.w3.org/2000/svg" xmlns:xlink="http://www.w3.org/1999/xlink">
<g id="graph0" class="graph" transform="scale(1 1) rotate(0) translate(4 760)">
<title>LubyDependencies</title>
<polygon fill="white" stroke="none" points="-4,4 -4,-760 1969.5,-760 1969.5,4 -4,4"/>
<!-- S2_ge_two -->
<g id="node1" class="node">
<title>S2_ge_two</title>
<polygon fill="#a9dfbf" stroke="black" points="73.25,-180 13.75,-180 13.75,-144 73.25,-144 73.25,-180"/>
<text text-anchor="middle" x="43.5" y="-158.32" font-family="Helvetica,sans-Serif" font-size="9.00">S₂_ge_two</text>
</g>
<!-- S2_ge_two_prime -->
<g id="node2" class="node">
<title>S2_ge_two_prime</title>
<polygon fill="#d7bde2" stroke="black" points="321,-108 260,-108 260,-72 321,-72 321,-108"/>
<text text-anchor="middle" x="290.5" y="-86.33" font-family="Helvetica,sans-Serif" font-size="9.00">S₂_ge_two&#39;</text>
</g>
<!-- S2_ge_two&#45;&gt;S2_ge_two_prime -->
<g id="edge2" class="edge">
<title>S2_ge_two&#45;&gt;S2_ge_two_prime</title>
<path fill="none" stroke="black" d="M73.32,-148.06C77.05,-146.61 80.85,-145.22 84.5,-144 142.16,-124.74 210.84,-108.33 252.53,-99.08"/>
<polygon fill="black" stroke="black" points="252.86,-101.15 258.26,-97.81 251.95,-97.05 252.86,-101.15"/>
</g>
<!-- luby_via_segment_eq_luby -->
<g id="node42" class="node">
<title>luby_via_segment_eq_luby</title>
<polygon fill="lightgrey" stroke="black" points="685.12,-36 555.88,-36 555.88,0 685.12,0 685.12,-36"/>
<text text-anchor="middle" x="620.5" y="-14.32" font-family="Helvetica,sans-Serif" font-size="9.00">luby_via_segment_eq_luby</text>
</g>
<!-- S2_ge_two_prime&#45;&gt;luby_via_segment_eq_luby -->
<g id="edge13" class="edge">
<title>S2_ge_two_prime&#45;&gt;luby_via_segment_eq_luby</title>
<path fill="none" stroke="black" d="M321.25,-82.48C372.68,-71.57 477.5,-49.33 548.38,-34.3"/>
<polygon fill="black" stroke="black" points="548.65,-36.39 554.08,-33.09 547.78,-32.28 548.65,-36.39"/>
</g>
<!-- bitslength_eq_size -->
<g id="node3" class="node">
<title>bitslength_eq_size</title>
<polygon fill="#aed6f1" stroke="black" points="1013.12,-756 919.88,-756 919.88,-720 1013.12,-720 1013.12,-756"/>
<text text-anchor="middle" x="966.5" y="-734.33" font-family="Helvetica,sans-Serif" font-size="9.00">bitslength_eq_size</text>
</g>
<!-- size_of_pow2_eq_self_add_one -->
<g id="node33" class="node">
<title>size_of_pow2_eq_self_add_one</title>
<polygon fill="#aed6f1" stroke="black" points="1132.62,-684 982.38,-684 982.38,-648 1132.62,-648 1132.62,-684"/>
<text text-anchor="middle" x="1057.5" y="-662.33" font-family="Helvetica,sans-Serif" font-size="9.00">size_of_pow2_eq_self_add_one</text>
</g>
<!-- bitslength_eq_size&#45;&gt;size_of_pow2_eq_self_add_one -->
<g id="edge48" class="edge">
<title>bitslength_eq_size&#45;&gt;size_of_pow2_eq_self_add_one</title>
<path fill="none" stroke="black" d="M988.99,-719.7C1001.14,-710.36 1016.24,-698.74 1029.18,-688.79"/>
<polygon fill="black" stroke="black" points="1030.27,-690.59 1033.75,-685.27 1027.71,-687.26 1030.27,-690.59"/>
</g>
<!-- size_sub -->
<g id="node34" class="node">
<title>size_sub</title>
<polygon fill="#aed6f1" stroke="black" points="755.5,-612 701.5,-612 701.5,-576 755.5,-576 755.5,-612"/>
<text text-anchor="middle" x="728.5" y="-590.33" font-family="Helvetica,sans-Serif" font-size="9.00">size_sub</text>
</g>
<!-- bitslength_eq_size&#45;&gt;size_sub -->
<g id="edge49" class="edge">
<title>bitslength_eq_size&#45;&gt;size_sub</title>
<path fill="none" stroke="black" d="M937.32,-719.59C892.98,-693.13 808.87,-642.95 762.06,-615.03"/>
<polygon fill="black" stroke="black" points="763.24,-613.28 757.01,-612.01 761.09,-616.89 763.24,-613.28"/>
</g>
<!-- envelope_S2_eq -->
<g id="node4" class="node">
<title>envelope_S2_eq</title>
<polygon fill="#d7bde2" stroke="black" points="1666.25,-468 1582.75,-468 1582.75,-432 1666.25,-432 1666.25,-468"/>
<text text-anchor="middle" x="1624.5" y="-446.32" font-family="Helvetica,sans-Serif" font-size="9.00">envelope_S₂_eq</text>
</g>
<!-- envelope_gives_pow2 -->
<g id="node5" class="node">
<title>envelope_gives_pow2</title>
<polygon fill="#d7bde2" stroke="black" points="1633,-396 1524,-396 1524,-360 1633,-360 1633,-396"/>
<text text-anchor="middle" x="1578.5" y="-374.32" font-family="Helvetica,sans-Serif" font-size="9.00">envelope_gives_pow2</text>
</g>
<!-- envelope_S2_eq&#45;&gt;envelope_gives_pow2 -->
<g id="edge3" class="edge">
<title>envelope_S2_eq&#45;&gt;envelope_gives_pow2</title>
<path fill="none" stroke="black" d="M1613.13,-431.7C1607.28,-422.8 1600.07,-411.82 1593.74,-402.2"/>
<polygon fill="black" stroke="black" points="1595.62,-401.23 1590.57,-397.37 1592.11,-403.54 1595.62,-401.23"/>
</g>
<!-- luby_via_segment_at_envelope -->
<g id="node7" class="node">
<title>luby_via_segment_at_envelope</title>
<polygon fill="#d7bde2" stroke="black" points="1366.12,-324 1218.88,-324 1218.88,-288 1366.12,-288 1366.12,-324"/>
<text text-anchor="middle" x="1292.5" y="-302.32" font-family="Helvetica,sans-Serif" font-size="9.00">luby_via_segment_at_envelope</text>
</g>
<!-- envelope_gives_pow2&#45;&gt;luby_via_segment_at_envelope -->
<g id="edge4" class="edge">
<title>envelope_gives_pow2&#45;&gt;luby_via_segment_at_envelope</title>
<path fill="none" stroke="black" d="M1523.71,-362.35C1520.6,-361.55 1517.51,-360.76 1514.5,-360 1468.01,-348.28 1415.87,-335.8 1373.81,-325.89"/>
<polygon fill="black" stroke="black" points="1374.41,-323.88 1368.09,-324.55 1373.45,-327.96 1374.41,-323.88"/>
</g>
<!-- le_if_le_size -->
<g id="node6" class="node">
<title>le_if_le_size</title>
<polygon fill="#aed6f1" stroke="black" points="648.38,-612 580.62,-612 580.62,-576 648.38,-576 648.38,-612"/>
<text text-anchor="middle" x="614.5" y="-590.33" font-family="Helvetica,sans-Serif" font-size="9.00">le_if_le_size</text>
</g>
<!-- n_ge_subenvelope -->
<g id="node11" class="node">
<title>n_ge_subenvelope</title>
<polygon fill="#aed6f1" stroke="black" points="662.25,-540 566.75,-540 566.75,-504 662.25,-504 662.25,-540"/>
<text text-anchor="middle" x="614.5" y="-518.33" font-family="Helvetica,sans-Serif" font-size="9.00">n_ge_subenvelope</text>
</g>
<!-- le_if_le_size&#45;&gt;n_ge_subenvelope -->
<g id="edge30" class="edge">
<title>le_if_le_size&#45;&gt;n_ge_subenvelope</title>
<path fill="none" stroke="black" d="M614.5,-575.7C614.5,-567.22 614.5,-556.86 614.5,-547.58"/>
<polygon fill="black" stroke="black" points="616.6,-547.62 614.5,-541.62 612.4,-547.62 616.6,-547.62"/>
</g>
<!-- luby_via_segment_at_envelope&#45;&gt;luby_via_segment_eq_luby -->
<g id="edge14" class="edge">
<title>luby_via_segment_at_envelope&#45;&gt;luby_via_segment_eq_luby</title>
<path fill="none" stroke="black" d="M1254.27,-287.54C1188.29,-257.53 1048.67,-194.52 929.5,-144 839.34,-105.78 733.35,-63.47 671.86,-39.17"/>
<polygon fill="black" stroke="black" points="672.71,-37.25 666.36,-37 671.17,-41.16 672.71,-37.25"/>
</g>
<!-- luby_via_segment_def -->
<g id="node8" class="node">
<title>luby_via_segment_def</title>
<polygon fill="#f5cba7" stroke="black" points="717,-180 608,-180 608,-144 717,-144 717,-180"/>
<text text-anchor="middle" x="662.5" y="-158.32" font-family="Helvetica,sans-Serif" font-size="9.00">luby_via_segment_def</text>
</g>
<!-- luby_via_segment_non_envelope -->
<g id="node9" class="node">
<title>luby_via_segment_non_envelope</title>
<polygon fill="#d7bde2" stroke="black" points="698.25,-108 542.75,-108 542.75,-72 698.25,-72 698.25,-108"/>
<text text-anchor="middle" x="620.5" y="-86.33" font-family="Helvetica,sans-Serif" font-size="9.00">luby_via_segment_non_envelope</text>
</g>
<!-- luby_via_segment_def&#45;&gt;luby_via_segment_non_envelope -->
<g id="edge16" class="edge">
<title>luby_via_segment_def&#45;&gt;luby_via_segment_non_envelope</title>
<path fill="none" stroke="black" d="M652.12,-143.7C646.83,-134.88 640.32,-124.03 634.58,-114.47"/>
<polygon fill="black" stroke="black" points="636.43,-113.47 631.54,-109.4 632.83,-115.63 636.43,-113.47"/>
</g>
<!-- luby_via_segment_non_envelope&#45;&gt;luby_via_segment_eq_luby -->
<g id="edge15" class="edge">
<title>luby_via_segment_non_envelope&#45;&gt;luby_via_segment_eq_luby</title>
<path fill="none" stroke="black" d="M620.5,-71.7C620.5,-63.22 620.5,-52.86 620.5,-43.58"/>
<polygon fill="black" stroke="black" points="622.6,-43.62 620.5,-37.62 618.4,-43.62 622.6,-43.62"/>
</g>
<!-- luby_via_segment_zero_eq_one -->
<g id="node10" class="node">
<title>luby_via_segment_zero_eq_one</title>
<polygon fill="#f5cba7" stroke="black" points="1936,-468 1785,-468 1785,-432 1936,-432 1936,-468"/>
<text text-anchor="middle" x="1860.5" y="-446.32" font-family="Helvetica,sans-Serif" font-size="9.00">luby_via_segment_zero_eq_one</text>
</g>
<!-- luby_via_segment_zero_eq_one&#45;&gt;luby_via_segment_at_envelope -->
<g id="edge5" class="edge">
<title>luby_via_segment_zero_eq_one&#45;&gt;luby_via_segment_at_envelope</title>
<path fill="none" stroke="black" d="M1841.35,-431.66C1830.01,-421.35 1815.38,-407.99 1802.5,-396 1785.47,-380.15 1785.6,-369.81 1764.5,-360 1696.93,-328.59 1489.55,-315.12 1373.42,-309.91"/>
<polygon fill="black" stroke="black" points="1373.85,-307.82 1367.76,-309.66 1373.66,-312.02 1373.85,-307.82"/>
</g>
<!-- n_ge_subenvelope&#45;&gt;luby_via_segment_non_envelope -->
<g id="edge17" class="edge">
<title>n_ge_subenvelope&#45;&gt;luby_via_segment_non_envelope</title>
<path fill="none" stroke="black" d="M607.42,-503.85C597.19,-477.49 579.5,-425.21 579.5,-379 579.5,-379 579.5,-379 579.5,-233 579.5,-190.18 596.92,-142.86 609.05,-115.09"/>
<polygon fill="black" stroke="black" points="610.86,-116.18 611.39,-109.85 607.02,-114.47 610.86,-116.18"/>
</g>
<!-- next_as_add -->
<g id="node12" class="node">
<title>next_as_add</title>
<polygon fill="#f5cba7" stroke="black" points="1779.12,-540 1709.88,-540 1709.88,-504 1779.12,-504 1779.12,-540"/>
<text text-anchor="middle" x="1744.5" y="-518.33" font-family="Helvetica,sans-Serif" font-size="9.00">next_as_add</text>
</g>
<!-- next_as_add&#45;&gt;luby_via_segment_zero_eq_one -->
<g id="edge28" class="edge">
<title>next_as_add&#45;&gt;luby_via_segment_zero_eq_one</title>
<path fill="none" stroke="black" d="M1773.47,-503.52C1789.37,-493.92 1809.19,-481.96 1825.9,-471.88"/>
<polygon fill="black" stroke="black" points="1826.55,-473.94 1830.6,-469.04 1824.38,-470.34 1826.55,-473.94"/>
</g>
<!-- unfold_segment -->
<g id="node40" class="node">
<title>unfold_segment</title>
<polygon fill="#f5cba7" stroke="black" points="1766.5,-468 1684.5,-468 1684.5,-432 1766.5,-432 1766.5,-468"/>
<text text-anchor="middle" x="1725.5" y="-446.32" font-family="Helvetica,sans-Serif" font-size="9.00">unfold_segment</text>
</g>
<!-- next_as_add&#45;&gt;unfold_segment -->
<g id="edge60" class="edge">
<title>next_as_add&#45;&gt;unfold_segment</title>
<path fill="none" stroke="black" d="M1739.8,-503.7C1737.48,-495.14 1734.64,-484.66 1732.1,-475.3"/>
<polygon fill="black" stroke="black" points="1734.14,-474.81 1730.54,-469.57 1730.08,-475.91 1734.14,-474.81"/>
</g>
<!-- ofNat_start_eq -->
<g id="node13" class="node">
<title>ofNat_start_eq</title>
<polygon fill="#d7bde2" stroke="black" points="1707.5,-324 1631.5,-324 1631.5,-288 1707.5,-288 1707.5,-324"/>
<text text-anchor="middle" x="1669.5" y="-302.32" font-family="Helvetica,sans-Serif" font-size="9.00">ofNat_start_eq</text>
</g>
<!-- ofNat_start_eq&#45;&gt;luby_via_segment_non_envelope -->
<g id="edge18" class="edge">
<title>ofNat_start_eq&#45;&gt;luby_via_segment_non_envelope</title>
<path fill="none" stroke="black" d="M1631.11,-296.02C1521.77,-270.57 1199.24,-196.45 929.5,-144 854,-129.32 767.71,-114.7 705.54,-104.54"/>
<polygon fill="black" stroke="black" points="706.21,-102.53 699.95,-103.63 705.53,-106.67 706.21,-102.53"/>
</g>
<!-- ofNat_succ -->
<g id="node14" class="node">
<title>ofNat_succ</title>
<polygon fill="#d7bde2" stroke="black" points="1353.38,-396 1291.62,-396 1291.62,-360 1353.38,-360 1353.38,-396"/>
<text text-anchor="middle" x="1322.5" y="-374.32" font-family="Helvetica,sans-Serif" font-size="9.00">ofNat_succ</text>
</g>
<!-- ofNat_succ&#45;&gt;luby_via_segment_at_envelope -->
<g id="edge6" class="edge">
<title>ofNat_succ&#45;&gt;luby_via_segment_at_envelope</title>
<path fill="none" stroke="black" d="M1315.08,-359.7C1311.34,-350.97 1306.75,-340.24 1302.68,-330.75"/>
<polygon fill="black" stroke="black" points="1304.72,-330.18 1300.43,-325.5 1300.86,-331.84 1304.72,-330.18"/>
</g>
<!-- pow2_is_minimum -->
<g id="node15" class="node">
<title>pow2_is_minimum</title>
<polygon fill="#aed6f1" stroke="black" points="1179.12,-612 1085.88,-612 1085.88,-576 1179.12,-576 1179.12,-612"/>
<text text-anchor="middle" x="1132.5" y="-590.33" font-family="Helvetica,sans-Serif" font-size="9.00">pow2_is_minimum</text>
</g>
<!-- trailing_zeros_prop7 -->
<g id="node37" class="node">
<title>trailing_zeros_prop7</title>
<polygon fill="#f9e79f" stroke="black" points="1249.88,-540 1149.12,-540 1149.12,-504 1249.88,-504 1249.88,-540"/>
<text text-anchor="middle" x="1199.5" y="-518.33" font-family="Helvetica,sans-Serif" font-size="9.00">trailing_zeros_prop7</text>
</g>
<!-- pow2_is_minimum&#45;&gt;trailing_zeros_prop7 -->
<g id="edge55" class="edge">
<title>pow2_is_minimum&#45;&gt;trailing_zeros_prop7</title>
<path fill="none" stroke="black" d="M1149.06,-575.7C1157.82,-566.54 1168.69,-555.19 1178.08,-545.38"/>
<polygon fill="black" stroke="black" points="1179.45,-546.98 1182.08,-541.2 1176.42,-544.08 1179.45,-546.98"/>
</g>
<!-- pow2_le_pow2 -->
<g id="node16" class="node">
<title>pow2_le_pow2</title>
<polygon fill="#a9dfbf" stroke="black" points="79,-252 0,-252 0,-216 79,-216 79,-252"/>
<text text-anchor="middle" x="39.5" y="-230.32" font-family="Helvetica,sans-Serif" font-size="9.00">pow2_le_pow2</text>
</g>
<!-- pow2_le_pow2&#45;&gt;S2_ge_two -->
<g id="edge1" class="edge">
<title>pow2_le_pow2&#45;&gt;S2_ge_two</title>
<path fill="none" stroke="black" d="M40.49,-215.7C40.97,-207.22 41.56,-196.86 42.1,-187.58"/>
<polygon fill="black" stroke="black" points="44.19,-187.73 42.44,-181.62 40,-187.49 44.19,-187.73"/>
</g>
<!-- pow2_sub_one -->
<g id="node17" class="node">
<title>pow2_sub_one</title>
<polygon fill="#aed6f1" stroke="black" points="768.38,-684 688.62,-684 688.62,-648 768.38,-648 768.38,-684"/>
<text text-anchor="middle" x="728.5" y="-662.33" font-family="Helvetica,sans-Serif" font-size="9.00">pow2_sub_one</text>
</g>
<!-- pow2_sub_one&#45;&gt;size_sub -->
<g id="edge50" class="edge">
<title>pow2_sub_one&#45;&gt;size_sub</title>
<path fill="none" stroke="black" d="M728.5,-647.7C728.5,-639.22 728.5,-628.86 728.5,-619.58"/>
<polygon fill="black" stroke="black" points="730.6,-619.62 728.5,-613.62 726.4,-619.62 730.6,-619.62"/>
</g>
<!-- segmentIdCovering_le_prime -->
<g id="node18" class="node">
<title>segmentIdCovering_le_prime</title>
<polygon fill="#d7bde2" stroke="black" points="551.75,-180 441.25,-180 441.25,-144 551.75,-144 551.75,-180"/>
<text text-anchor="middle" x="496.5" y="-158.32" font-family="Helvetica,sans-Serif" font-size="9.00">segmentIdCovering_le&#39;</text>
</g>
<!-- segmentIdCovering_le_prime&#45;&gt;luby_via_segment_non_envelope -->
<g id="edge19" class="edge">
<title>segmentIdCovering_le_prime&#45;&gt;luby_via_segment_non_envelope</title>
<path fill="none" stroke="black" d="M527.47,-143.52C544.46,-133.92 565.65,-121.96 583.51,-111.88"/>
<polygon fill="black" stroke="black" points="584.41,-113.78 588.61,-109 582.35,-110.13 584.41,-113.78"/>
</g>
<!-- segmentIdCovering_pos -->
<g id="node19" class="node">
<title>segmentIdCovering_pos</title>
<polygon fill="#f5cba7" stroke="black" points="213.75,-252 97.25,-252 97.25,-216 213.75,-216 213.75,-252"/>
<text text-anchor="middle" x="155.5" y="-230.32" font-family="Helvetica,sans-Serif" font-size="9.00">segmentIdCovering_pos</text>
</g>
<!-- segmentIdCovering_pos_prime -->
<g id="node20" class="node">
<title>segmentIdCovering_pos_prime</title>
<polygon fill="#d7bde2" stroke="black" points="211.5,-180 93.5,-180 93.5,-144 211.5,-144 211.5,-180"/>
<text text-anchor="middle" x="152.5" y="-158.32" font-family="Helvetica,sans-Serif" font-size="9.00">segmentIdCovering_pos&#39;</text>
</g>
<!-- segmentIdCovering_pos&#45;&gt;segmentIdCovering_pos_prime -->
<g id="edge37" class="edge">
<title>segmentIdCovering_pos&#45;&gt;segmentIdCovering_pos_prime</title>
<path fill="none" stroke="black" d="M154.76,-215.7C154.4,-207.22 153.95,-196.86 153.55,-187.58"/>
<polygon fill="black" stroke="black" points="155.65,-187.52 153.3,-181.62 151.46,-187.7 155.65,-187.52"/>
</g>
<!-- segmentIdCovering_pos_prime&#45;&gt;luby_via_segment_non_envelope -->
<g id="edge20" class="edge">
<title>segmentIdCovering_pos_prime&#45;&gt;luby_via_segment_non_envelope</title>
<path fill="none" stroke="black" d="M211.76,-146.7C216.4,-145.73 221.02,-144.82 225.5,-144 331.7,-124.56 455.19,-109.12 535.44,-100.04"/>
<polygon fill="black" stroke="black" points="535.35,-102.16 541.08,-99.4 534.88,-97.99 535.35,-102.16"/>
</g>
<!-- segmentIdOver_0 -->
<g id="node21" class="node">
<title>segmentIdOver_0</title>
<polygon fill="#f5cba7" stroke="black" points="1904.88,-540 1816.12,-540 1816.12,-504 1904.88,-504 1904.88,-540"/>
<text text-anchor="middle" x="1860.5" y="-518.33" font-family="Helvetica,sans-Serif" font-size="9.00">segmentIdOver_0</text>
</g>
<!-- segmentIdOver_0&#45;&gt;luby_via_segment_zero_eq_one -->
<g id="edge29" class="edge">
<title>segmentIdOver_0&#45;&gt;luby_via_segment_zero_eq_one</title>
<path fill="none" stroke="black" d="M1860.5,-503.7C1860.5,-495.22 1860.5,-484.86 1860.5,-475.58"/>
<polygon fill="black" stroke="black" points="1862.6,-475.62 1860.5,-469.62 1858.4,-475.62 1862.6,-475.62"/>
</g>
<!-- segmentIdOver_at_envelope -->
<g id="node22" class="node">
<title>segmentIdOver_at_envelope</title>
<polygon fill="#f5cba7" stroke="black" points="1505.75,-396 1371.25,-396 1371.25,-360 1505.75,-360 1505.75,-396"/>
<text text-anchor="middle" x="1438.5" y="-374.32" font-family="Helvetica,sans-Serif" font-size="9.00">segmentIdOver_at_envelope</text>
</g>
<!-- segmentIdOver_at_envelope&#45;&gt;luby_via_segment_at_envelope -->
<g id="edge7" class="edge">
<title>segmentIdOver_at_envelope&#45;&gt;luby_via_segment_at_envelope</title>
<path fill="none" stroke="black" d="M1402.03,-359.52C1381.84,-349.83 1356.61,-337.74 1335.47,-327.6"/>
<polygon fill="black" stroke="black" points="1336.44,-325.74 1330.12,-325.04 1334.62,-329.52 1336.44,-325.74"/>
</g>
<!-- segment_starts_gt_self -->
<g id="node23" class="node">
<title>segment_starts_gt_self</title>
<polygon fill="#f5cba7" stroke="black" points="276.75,-324 166.25,-324 166.25,-288 276.75,-288 276.75,-324"/>
<text text-anchor="middle" x="221.5" y="-302.32" font-family="Helvetica,sans-Serif" font-size="9.00">segment_starts_gt_self</text>
</g>
<!-- segment_starts_gt_self&#45;&gt;segmentIdCovering_pos -->
<g id="edge36" class="edge">
<title>segment_starts_gt_self&#45;&gt;segmentIdCovering_pos</title>
<path fill="none" stroke="black" d="M205.19,-287.7C196.55,-278.54 185.85,-267.19 176.6,-257.38"/>
<polygon fill="black" stroke="black" points="178.31,-256.13 172.67,-253.21 175.25,-259.01 178.31,-256.13"/>
</g>
<!-- segment_starts_gt_self_prime -->
<g id="node24" class="node">
<title>segment_starts_gt_self_prime</title>
<polygon fill="#d7bde2" stroke="black" points="343.5,-252 231.5,-252 231.5,-216 343.5,-216 343.5,-252"/>
<text text-anchor="middle" x="287.5" y="-230.32" font-family="Helvetica,sans-Serif" font-size="9.00">segment_starts_gt_self&#39;</text>
</g>
<!-- segment_starts_gt_self&#45;&gt;segment_starts_gt_self_prime -->
<g id="edge42" class="edge">
<title>segment_starts_gt_self&#45;&gt;segment_starts_gt_self_prime</title>
<path fill="none" stroke="black" d="M237.81,-287.7C246.45,-278.54 257.15,-267.19 266.4,-257.38"/>
<polygon fill="black" stroke="black" points="267.75,-259.01 270.33,-253.21 264.69,-256.13 267.75,-259.01"/>
</g>
<!-- segment_starts_gt_self_prime&#45;&gt;luby_via_segment_non_envelope -->
<g id="edge21" class="edge">
<title>segment_starts_gt_self_prime&#45;&gt;luby_via_segment_non_envelope</title>
<path fill="none" stroke="black" d="M272.99,-215.65C258.5,-196.15 240.75,-164.53 258.5,-144 293.51,-103.49 439.44,-93.35 534.98,-91.15"/>
<polygon fill="black" stroke="black" points="534.88,-93.25 540.83,-91.02 534.79,-89.05 534.88,-93.25"/>
</g>
<!-- segment_starts_gt_self_prime&#45;&gt;segmentIdCovering_le_prime -->
<g id="edge34" class="edge">
<title>segment_starts_gt_self_prime&#45;&gt;segmentIdCovering_le_prime</title>
<path fill="none" stroke="black" d="M339.7,-215.52C369.49,-205.54 406.91,-193 437.73,-182.68"/>
<polygon fill="black" stroke="black" points="438.15,-184.76 443.17,-180.86 436.81,-180.78 438.15,-184.76"/>
</g>
<!-- segment_starts_is_increasing_prime -->
<g id="node25" class="node">
<title>segment_starts_is_increasing_prime</title>
<polygon fill="#f5cba7" stroke="black" points="1564.38,-468 1424.62,-468 1424.62,-432 1564.38,-432 1564.38,-468"/>
<text text-anchor="middle" x="1494.5" y="-446.32" font-family="Helvetica,sans-Serif" font-size="9.00">segment_starts_is_increasing&#39;</text>
</g>
<!-- segment_starts_is_increasing_prime&#45;&gt;segmentIdOver_at_envelope -->
<g id="edge38" class="edge">
<title>segment_starts_is_increasing_prime&#45;&gt;segmentIdOver_at_envelope</title>
<path fill="none" stroke="black" d="M1480.66,-431.7C1473.47,-422.71 1464.59,-411.61 1456.84,-401.92"/>
<polygon fill="black" stroke="black" points="1458.52,-400.66 1453.13,-397.29 1455.24,-403.28 1458.52,-400.66"/>
</g>
<!-- segment_starts_is_monotone -->
<g id="node26" class="node">
<title>segment_starts_is_monotone</title>
<polygon fill="#f5cba7" stroke="black" points="1066.88,-468 930.12,-468 930.12,-432 1066.88,-432 1066.88,-468"/>
<text text-anchor="middle" x="998.5" y="-446.32" font-family="Helvetica,sans-Serif" font-size="9.00">segment_starts_is_monotone</text>
</g>
<!-- segment_starts_is_monotone&#45;&gt;luby_via_segment_non_envelope -->
<g id="edge22" class="edge">
<title>segment_starts_is_monotone&#45;&gt;luby_via_segment_non_envelope</title>
<path fill="none" stroke="black" d="M932.13,-431.53C895.84,-421.05 855.33,-407.57 840.5,-396 803.46,-367.11 783.5,-353.97 783.5,-307 783.5,-307 783.5,-307 783.5,-233 783.5,-192.03 786.97,-174.39 759.5,-144 745.11,-128.08 725.41,-116.91 705.37,-109.08"/>
<polygon fill="black" stroke="black" points="706.34,-107.2 699.99,-107.08 704.88,-111.14 706.34,-107.2"/>
</g>
<!-- segment_starts_is_monotone&#45;&gt;segmentIdOver_at_envelope -->
<g id="edge39" class="edge">
<title>segment_starts_is_monotone&#45;&gt;segmentIdOver_at_envelope</title>
<path fill="none" stroke="black" d="M1067.18,-440.57C1140.55,-431.2 1260.13,-414.87 1362.5,-396 1362.94,-395.92 1363.37,-395.84 1363.81,-395.76"/>
<polygon fill="black" stroke="black" points="1364.03,-397.85 1369.52,-394.66 1363.23,-393.73 1364.03,-397.85"/>
</g>
<!-- segment_starts_pow2_add_one -->
<g id="node27" class="node">
<title>segment_starts_pow2_add_one</title>
<polygon fill="#d7bde2" stroke="black" points="959.5,-252 811.5,-252 811.5,-216 959.5,-216 959.5,-252"/>
<text text-anchor="middle" x="885.5" y="-230.32" font-family="Helvetica,sans-Serif" font-size="9.00">segment_starts_pow2_add_one</text>
</g>
<!-- segment_starts_pow2_add_one&#45;&gt;luby_via_segment_non_envelope -->
<g id="edge23" class="edge">
<title>segment_starts_pow2_add_one&#45;&gt;luby_via_segment_non_envelope</title>
<path fill="none" stroke="black" d="M872.82,-215.7C857.25,-195.64 828.98,-162.91 797.5,-144 769.63,-127.25 736.07,-115.46 705.71,-107.32"/>
<polygon fill="black" stroke="black" points="706.27,-105.3 699.94,-105.82 705.21,-109.36 706.27,-105.3"/>
</g>
<!-- segment_starts_pow2_add_one&#45;&gt;segmentIdCovering_le_prime -->
<g id="edge35" class="edge">
<title>segment_starts_pow2_add_one&#45;&gt;segmentIdCovering_le_prime</title>
<path fill="none" stroke="black" d="M811.42,-219.67C738.46,-206.54 628.25,-186.71 559.42,-174.32"/>
<polygon fill="black" stroke="black" points="559.83,-172.26 553.56,-173.27 559.09,-176.4 559.83,-172.26"/>
</g>
<!-- segment_starts_shift -->
<g id="node28" class="node">
<title>segment_starts_shift</title>
<polygon fill="#d7bde2" stroke="black" points="949.5,-324 849.5,-324 849.5,-288 949.5,-288 949.5,-324"/>
<text text-anchor="middle" x="899.5" y="-302.32" font-family="Helvetica,sans-Serif" font-size="9.00">segment_starts_shift</text>
</g>
<!-- segment_starts_shift&#45;&gt;luby_via_segment_non_envelope -->
<g id="edge24" class="edge">
<title>segment_starts_shift&#45;&gt;luby_via_segment_non_envelope</title>
<path fill="none" stroke="black" d="M933.7,-287.73C947.13,-279 961.09,-267.04 968.5,-252 975.57,-237.65 976.75,-229.71 968.5,-216 915.01,-127.16 790.46,-100.66 705.82,-93.21"/>
<polygon fill="black" stroke="black" points="706.19,-91.13 700.04,-92.73 705.84,-95.32 706.19,-91.13"/>
</g>
<!-- segment_starts_shift&#45;&gt;segment_starts_pow2_add_one -->
<g id="edge43" class="edge">
<title>segment_starts_shift&#45;&gt;segment_starts_pow2_add_one</title>
<path fill="none" stroke="black" d="M896.04,-287.7C894.33,-279.14 892.23,-268.66 890.36,-259.3"/>
<polygon fill="black" stroke="black" points="892.45,-259.06 889.22,-253.59 888.34,-259.88 892.45,-259.06"/>
</g>
<!-- segment_starts_to_segment_start -->
<g id="node29" class="node">
<title>segment_starts_to_segment_start</title>
<polygon fill="#f5cba7" stroke="black" points="1965.5,-396 1811.5,-396 1811.5,-360 1965.5,-360 1965.5,-396"/>
<text text-anchor="middle" x="1888.5" y="-374.32" font-family="Helvetica,sans-Serif" font-size="9.00">segment_starts_to_segment_start</text>
</g>
<!-- segment_starts_to_segment_start&#45;&gt;ofNat_start_eq -->
<g id="edge32" class="edge">
<title>segment_starts_to_segment_start&#45;&gt;ofNat_start_eq</title>
<path fill="none" stroke="black" d="M1833.8,-359.52C1796.98,-347.75 1749.02,-332.42 1714.44,-321.36"/>
<polygon fill="black" stroke="black" points="1715.5,-319.5 1709.15,-319.67 1714.22,-323.5 1715.5,-319.5"/>
</g>
<!-- size2_eq_2 -->
<g id="node30" class="node">
<title>size2_eq_2</title>
<polygon fill="#aed6f1" stroke="black" points="331.5,-180 267.5,-180 267.5,-144 331.5,-144 331.5,-180"/>
<text text-anchor="middle" x="299.5" y="-158.32" font-family="Helvetica,sans-Serif" font-size="9.00">size2_eq_2</text>
</g>
<!-- size2_eq_2&#45;&gt;luby_via_segment_non_envelope -->
<g id="edge25" class="edge">
<title>size2_eq_2&#45;&gt;luby_via_segment_non_envelope</title>
<path fill="none" stroke="black" d="M331.84,-147.18C335.07,-146.02 338.33,-144.93 341.5,-144 405.21,-125.25 479.12,-111.56 534.86,-102.79"/>
<polygon fill="black" stroke="black" points="535.15,-104.87 540.76,-101.88 534.51,-100.72 535.15,-104.87"/>
</g>
<!-- size_add_prime -->
<g id="node31" class="node">
<title>size_add_prime</title>
<polygon fill="#aed6f1" stroke="black" points="1252,-612 1197,-612 1197,-576 1252,-576 1252,-612"/>
<text text-anchor="middle" x="1224.5" y="-590.33" font-family="Helvetica,sans-Serif" font-size="9.00">size_add&#39;</text>
</g>
<!-- size_add_prime&#45;&gt;trailing_zeros_prop7 -->
<g id="edge56" class="edge">
<title>size_add_prime&#45;&gt;trailing_zeros_prop7</title>
<path fill="none" stroke="black" d="M1218.32,-575.7C1215.23,-567.05 1211.45,-556.45 1208.08,-547.03"/>
<polygon fill="black" stroke="black" points="1210.11,-546.47 1206.12,-541.53 1206.16,-547.89 1210.11,-546.47"/>
</g>
<!-- size_of_pow2 -->
<g id="node32" class="node">
<title>size_of_pow2</title>
<polygon fill="#aed6f1" stroke="black" points="423,-180 350,-180 350,-144 423,-144 423,-180"/>
<text text-anchor="middle" x="386.5" y="-158.32" font-family="Helvetica,sans-Serif" font-size="9.00">size_of_pow2</text>
</g>
<!-- size_of_pow2&#45;&gt;luby_via_segment_non_envelope -->
<g id="edge26" class="edge">
<title>size_of_pow2&#45;&gt;luby_via_segment_non_envelope</title>
<path fill="none" stroke="black" d="M423.32,-147.1C426.41,-146.02 429.5,-144.97 432.5,-144 469.84,-131.86 511.86,-119.86 546.69,-110.36"/>
<polygon fill="black" stroke="black" points="546.85,-112.49 552.09,-108.89 545.75,-108.43 546.85,-112.49"/>
</g>
<!-- size_of_pow2_eq_self_add_one&#45;&gt;luby_via_segment_at_envelope -->
<g id="edge8" class="edge">
<title>size_of_pow2_eq_self_add_one&#45;&gt;luby_via_segment_at_envelope</title>
<path fill="none" stroke="black" d="M1059.8,-647.56C1062.53,-629.33 1067.84,-600.08 1076.5,-576 1100.92,-508.1 1107.13,-488.91 1151.5,-432 1183.84,-390.52 1231.17,-351.84 1261.91,-328.8"/>
<polygon fill="black" stroke="black" points="1263.05,-330.57 1266.61,-325.31 1260.55,-327.2 1263.05,-330.57"/>
</g>
<!-- size_of_pow2_eq_self_add_one&#45;&gt;luby_via_segment_non_envelope -->
<g id="edge27" class="edge">
<title>size_of_pow2_eq_self_add_one&#45;&gt;luby_via_segment_non_envelope</title>
<path fill="none" stroke="black" d="M1010.79,-647.61C923.75,-611.82 745.5,-521.19 745.5,-379 745.5,-379 745.5,-379 745.5,-233 745.5,-192.55 751.26,-175.98 726.5,-144 715.7,-130.05 700.24,-119.5 684.46,-111.63"/>
<polygon fill="black" stroke="black" points="685.38,-109.74 679.06,-109.07 683.58,-113.54 685.38,-109.74"/>
</g>
<!-- size_of_pow2_eq_self_add_one&#45;&gt;pow2_is_minimum -->
<g id="edge33" class="edge">
<title>size_of_pow2_eq_self_add_one&#45;&gt;pow2_is_minimum</title>
<path fill="none" stroke="black" d="M1076.04,-647.7C1085.87,-638.53 1098.05,-627.16 1108.58,-617.33"/>
<polygon fill="black" stroke="black" points="1109.85,-619.01 1112.81,-613.38 1106.99,-615.94 1109.85,-619.01"/>
</g>
<!-- size_of_pow2_eq_self_add_one&#45;&gt;segmentIdOver_at_envelope -->
<g id="edge40" class="edge">
<title>size_of_pow2_eq_self_add_one&#45;&gt;segmentIdOver_at_envelope</title>
<path fill="none" stroke="black" d="M1132.89,-659.89C1183.87,-653.86 1251.34,-640.7 1304.5,-612 1344.6,-590.36 1353.09,-578.48 1377.5,-540 1404.76,-497.03 1396.92,-479.37 1415.5,-432 1419.3,-422.33 1423.79,-411.8 1427.79,-402.7"/>
<polygon fill="black" stroke="black" points="1429.61,-403.78 1430.12,-397.44 1425.77,-402.08 1429.61,-403.78"/>
</g>
<!-- size_of_pow2_eq_self_add_one&#45;&gt;segment_starts_shift -->
<g id="edge44" class="edge">
<title>size_of_pow2_eq_self_add_one&#45;&gt;segment_starts_shift</title>
<path fill="none" stroke="black" d="M1016.16,-647.58C956.13,-619.73 847.14,-558.89 802.5,-468 777.1,-416.29 832.87,-359.32 869.94,-328.95"/>
<polygon fill="black" stroke="black" points="871.17,-330.65 874.53,-325.26 868.54,-327.38 871.17,-330.65"/>
</g>
<!-- size_of_pow2_eq_self_add_one&#45;&gt;size_sub -->
<g id="edge51" class="edge">
<title>size_of_pow2_eq_self_add_one&#45;&gt;size_sub</title>
<path fill="none" stroke="black" d="M981.89,-655.54C923.2,-647.13 840.19,-632.9 769.5,-612 767.21,-611.32 764.87,-610.56 762.53,-609.74"/>
<polygon fill="black" stroke="black" points="763.33,-607.8 756.98,-607.68 761.87,-611.74 763.33,-607.8"/>
</g>
<!-- trailing_zeros_prop3 -->
<g id="node36" class="node">
<title>trailing_zeros_prop3</title>
<polygon fill="#f9e79f" stroke="black" points="1368.88,-540 1268.12,-540 1268.12,-504 1368.88,-504 1368.88,-540"/>
<text text-anchor="middle" x="1318.5" y="-518.33" font-family="Helvetica,sans-Serif" font-size="9.00">trailing_zeros_prop3</text>
</g>
<!-- size_of_pow2_eq_self_add_one&#45;&gt;trailing_zeros_prop3 -->
<g id="edge54" class="edge">
<title>size_of_pow2_eq_self_add_one&#45;&gt;trailing_zeros_prop3</title>
<path fill="none" stroke="black" d="M1133.02,-663.29C1179.58,-658.57 1237.94,-645.61 1278.5,-612 1298.25,-595.64 1308.63,-567.5 1313.82,-547.24"/>
<polygon fill="black" stroke="black" points="1315.8,-547.96 1315.15,-541.64 1311.72,-546.99 1315.8,-547.96"/>
</g>
<!-- size_of_pow2_eq_self_add_one&#45;&gt;trailing_zeros_prop7 -->
<g id="edge57" class="edge">
<title>size_of_pow2_eq_self_add_one&#45;&gt;trailing_zeros_prop7</title>
<path fill="none" stroke="black" d="M1133.11,-655.1C1184.36,-646.66 1245.58,-632.59 1261.5,-612 1271.29,-599.34 1268.2,-590.53 1261.5,-576 1255.8,-563.63 1245.63,-553.07 1235.16,-544.71"/>
<polygon fill="black" stroke="black" points="1236.59,-543.16 1230.54,-541.21 1234.05,-546.51 1236.59,-543.16"/>
</g>
<!-- size_sub&#45;&gt;luby_via_segment_at_envelope -->
<g id="edge9" class="edge">
<title>size_sub&#45;&gt;luby_via_segment_at_envelope</title>
<path fill="none" stroke="black" d="M755.9,-590.67C820.23,-583.77 982.54,-557.93 1075.5,-468 1112.63,-432.08 1080.48,-394.98 1118.5,-360 1143.89,-336.64 1179.29,-323.57 1211.54,-316.26"/>
<polygon fill="black" stroke="black" points="1211.89,-318.33 1217.32,-315.01 1211.01,-314.22 1211.89,-318.33"/>
</g>
<!-- size_sub&#45;&gt;n_ge_subenvelope -->
<g id="edge31" class="edge">
<title>size_sub&#45;&gt;n_ge_subenvelope</title>
<path fill="none" stroke="black" d="M701.19,-576.23C685.47,-566.58 665.57,-554.36 648.8,-544.06"/>
<polygon fill="black" stroke="black" points="650.28,-542.5 644.06,-541.15 648.08,-546.08 650.28,-542.5"/>
</g>
<!-- sum_of_trailing_zeros_prop -->
<g id="node35" class="node">
<title>sum_of_trailing_zeros_prop</title>
<polygon fill="#f9e79f" stroke="black" points="1290.88,-468 1160.12,-468 1160.12,-432 1290.88,-432 1290.88,-468"/>
<text text-anchor="middle" x="1225.5" y="-446.32" font-family="Helvetica,sans-Serif" font-size="9.00">sum_of_trailing_zeros_prop</text>
</g>
<!-- sum_of_trailing_zeros_prop&#45;&gt;luby_via_segment_at_envelope -->
<g id="edge10" class="edge">
<title>sum_of_trailing_zeros_prop&#45;&gt;luby_via_segment_at_envelope</title>
<path fill="none" stroke="black" d="M1227.94,-431.83C1231.07,-413.32 1237.56,-383.37 1249.5,-360 1254.99,-349.27 1262.9,-338.7 1270.45,-329.85"/>
<polygon fill="black" stroke="black" points="1271.94,-331.34 1274.33,-325.44 1268.79,-328.56 1271.94,-331.34"/>
</g>
<!-- sum_of_trailing_zeros_prop&#45;&gt;segmentIdOver_at_envelope -->
<g id="edge41" class="edge">
<title>sum_of_trailing_zeros_prop&#45;&gt;segmentIdOver_at_envelope</title>
<path fill="none" stroke="black" d="M1278.7,-431.52C1309.06,-421.54 1347.2,-409 1378.61,-398.68"/>
<polygon fill="black" stroke="black" points="1379.13,-400.72 1384.17,-396.85 1377.82,-396.73 1379.13,-400.72"/>
</g>
<!-- sum_of_trailing_zeros_prop&#45;&gt;segment_starts_shift -->
<g id="edge45" class="edge">
<title>sum_of_trailing_zeros_prop&#45;&gt;segment_starts_shift</title>
<path fill="none" stroke="black" d="M1185.53,-431.59C1125.08,-405.26 1010.65,-355.42 946.37,-327.41"/>
<polygon fill="black" stroke="black" points="947.27,-325.52 940.93,-325.05 945.6,-329.37 947.27,-325.52"/>
</g>
<!-- trailing_zeros_prop3&#45;&gt;luby_via_segment_at_envelope -->
<g id="edge11" class="edge">
<title>trailing_zeros_prop3&#45;&gt;luby_via_segment_at_envelope</title>
<path fill="none" stroke="black" d="M1316.01,-503.62C1313.12,-485.45 1307.69,-456.25 1299.5,-432 1293.84,-415.24 1286.37,-413.27 1282.5,-396 1279,-380.39 1281.01,-375.93 1282.5,-360 1283.39,-350.53 1285.14,-340.23 1286.94,-331.26"/>
<polygon fill="black" stroke="black" points="1288.96,-331.86 1288.13,-325.55 1284.85,-331 1288.96,-331.86"/>
</g>
<!-- trailing_zeros_prop3&#45;&gt;sum_of_trailing_zeros_prop -->
<g id="edge52" class="edge">
<title>trailing_zeros_prop3&#45;&gt;sum_of_trailing_zeros_prop</title>
<path fill="none" stroke="black" d="M1295.51,-503.7C1283.1,-494.36 1267.67,-482.74 1254.45,-472.79"/>
<polygon fill="black" stroke="black" points="1255.81,-471.19 1249.76,-469.26 1253.29,-474.54 1255.81,-471.19"/>
</g>
<!-- trailing_zeros_prop7&#45;&gt;sum_of_trailing_zeros_prop -->
<g id="edge53" class="edge">
<title>trailing_zeros_prop7&#45;&gt;sum_of_trailing_zeros_prop</title>
<path fill="none" stroke="black" d="M1205.93,-503.7C1209.14,-495.05 1213.08,-484.45 1216.58,-475.03"/>
<polygon fill="black" stroke="black" points="1218.5,-475.88 1218.62,-469.52 1214.56,-474.42 1218.5,-475.88"/>
</g>
<!-- trailing_zeros_prop8 -->
<g id="node38" class="node">
<title>trailing_zeros_prop8</title>
<polygon fill="#f9e79f" stroke="black" points="911.88,-468 811.12,-468 811.12,-432 911.88,-432 911.88,-468"/>
<text text-anchor="middle" x="861.5" y="-446.32" font-family="Helvetica,sans-Serif" font-size="9.00">trailing_zeros_prop8</text>
</g>
<!-- trailing_zeros_prop7&#45;&gt;trailing_zeros_prop8 -->
<g id="edge58" class="edge">
<title>trailing_zeros_prop7&#45;&gt;trailing_zeros_prop8</title>
<path fill="none" stroke="black" d="M1148.74,-512.7C1092.79,-503.23 1000.27,-486.63 921.5,-468 920.74,-467.82 919.97,-467.64 919.19,-467.45"/>
<polygon fill="black" stroke="black" points="919.96,-465.47 913.63,-466.06 918.94,-469.55 919.96,-465.47"/>
</g>
<!-- trailing_zeros_prop9 -->
<g id="node39" class="node">
<title>trailing_zeros_prop9</title>
<polygon fill="#f9e79f" stroke="black" points="949.88,-396 849.12,-396 849.12,-360 949.88,-360 949.88,-396"/>
<text text-anchor="middle" x="899.5" y="-374.32" font-family="Helvetica,sans-Serif" font-size="9.00">trailing_zeros_prop9</text>
</g>
<!-- trailing_zeros_prop8&#45;&gt;trailing_zeros_prop9 -->
<g id="edge59" class="edge">
<title>trailing_zeros_prop8&#45;&gt;trailing_zeros_prop9</title>
<path fill="none" stroke="black" d="M870.89,-431.7C875.68,-422.88 881.57,-412.03 886.76,-402.47"/>
<polygon fill="black" stroke="black" points="888.48,-403.71 889.49,-397.43 884.78,-401.71 888.48,-403.71"/>
</g>
<!-- trailing_zeros_prop9&#45;&gt;segment_starts_shift -->
<g id="edge46" class="edge">
<title>trailing_zeros_prop9&#45;&gt;segment_starts_shift</title>
<path fill="none" stroke="black" d="M899.5,-359.7C899.5,-351.22 899.5,-340.86 899.5,-331.58"/>
<polygon fill="black" stroke="black" points="901.6,-331.62 899.5,-325.62 897.4,-331.62 901.6,-331.62"/>
</g>
<!-- unfold_segment&#45;&gt;segment_starts_to_segment_start -->
<g id="edge47" class="edge">
<title>unfold_segment&#45;&gt;segment_starts_to_segment_start</title>
<path fill="none" stroke="black" d="M1766.21,-431.52C1788.95,-421.75 1817.41,-409.53 1841.14,-399.34"/>
<polygon fill="black" stroke="black" points="1841.95,-401.28 1846.63,-396.98 1840.29,-397.42 1841.95,-401.28"/>
</g>
<!-- unfold_segment_start -->
<g id="node41" class="node">
<title>unfold_segment_start</title>
<polygon fill="#f5cba7" stroke="black" points="1755.75,-396 1651.25,-396 1651.25,-360 1755.75,-360 1755.75,-396"/>
<text text-anchor="middle" x="1703.5" y="-374.32" font-family="Helvetica,sans-Serif" font-size="9.00">unfold_segment_start</text>
</g>
<!-- unfold_segment&#45;&gt;unfold_segment_start -->
<g id="edge61" class="edge">
<title>unfold_segment&#45;&gt;unfold_segment_start</title>
<path fill="none" stroke="black" d="M1720.06,-431.7C1717.34,-423.05 1714.01,-412.45 1711.05,-403.03"/>
<polygon fill="black" stroke="black" points="1713.13,-402.64 1709.33,-397.55 1709.13,-403.9 1713.13,-402.64"/>
</g>
<!-- unfold_segment_start&#45;&gt;luby_via_segment_at_envelope -->
<g id="edge12" class="edge">
<title>unfold_segment_start&#45;&gt;luby_via_segment_at_envelope</title>
<path fill="none" stroke="black" d="M1651.03,-361.94C1648.15,-361.25 1645.29,-360.6 1642.5,-360 1551.14,-340.43 1444.86,-325.41 1373.59,-316.44"/>
<polygon fill="black" stroke="black" points="1374.09,-314.39 1367.88,-315.73 1373.57,-318.55 1374.09,-314.39"/>
</g>
</g>
</svg>
